<svg width="897.222" height="915.995" xmlns="http://www.w3.org/2000/svg" xmlns:xlink="http://www.w3.org/1999/xlink"><defs><linearGradient y2="1.15" x2=".344" y1="-.15" x1=".338" id="F" xlink:href="#g"/><linearGradient y2=".5" x2="0" y1=".5" x1="1" id="ac" xlink:href="#a"/><linearGradient y2=".5" x2="1" y1=".5" x1="0" id="ad" xlink:href="#c"/><linearGradient y2="1" x2=".5" y1="0" x1=".5" id="aj" xlink:href="#d"/><linearGradient y2="1" x2=".5" y1="-1.02" x1=".5" id="af" xlink:href="#e"/><linearGradient y2="1" x2=".5" y1="0" x1=".5" id="ae" xlink:href="#e"/><linearGradient id="o"><stop stop-color="#838383" offset="0"/><stop stop-color="#aeaeae" offset=".8"/><stop stop-color="#b5b5b5" offset=".946"/><stop stop-color="#e5e5e5" offset="1"/></linearGradient><linearGradient id="m"><stop stop-color="#854b4b" offset="0"/><stop stop-color="#551616" offset="1"/></linearGradient><linearGradient id="s"><stop stop-color="#a9a4a4" offset="0"/><stop stop-color="#666" offset="1"/></linearGradient><linearGradient id="c"><stop stop-color="red" offset="0"/><stop stop-color="#b04947" offset="1"/></linearGradient><linearGradient id="a"><stop stop-color="#fff" offset="0"/><stop stop-color="#b4b8b8" offset="1"/></linearGradient><linearGradient id="b"><stop stop-color="#95b0ff" offset="0"/><stop stop-color="#3065ff" offset=".203"/><stop stop-color="#3065ff" offset=".203"/><stop stop-color="#3065ff" offset="1"/></linearGradient><linearGradient id="e"><stop stop-color="#afa6a6" offset="0"/><stop stop-color="#4d4d4d" offset="1"/></linearGradient><linearGradient id="t"><stop stop-color="#fdb5b5" offset="0"/><stop stop-color="red" offset="1"/></linearGradient><linearGradient id="d"><stop stop-color="#fafaff" stop-opacity=".361" offset="0"/><stop stop-color="#fff" stop-opacity=".125" offset="1"/></linearGradient><linearGradient id="u"><stop stop-color="#646464" offset="0"/><stop stop-color="#333" offset="1"/></linearGradient><linearGradient id="f"><stop stop-color="#bebebe" offset="0"/><stop stop-color="#302c2c" offset=".5"/><stop stop-color="#bebebe" offset="1"/></linearGradient><linearGradient id="i"><stop stop-color="#501616" offset="0"/><stop stop-color="#501616" offset=".25"/><stop stop-color="#cca25a" offset=".3"/><stop stop-color="#cca25a" offset="1"/></linearGradient><linearGradient id="g"><stop stop-color="#262626" offset="0"/><stop stop-color="#948b8b" offset="1"/></linearGradient><linearGradient id="h"><stop offset="0"/><stop offset=".8"/><stop stop-color="#434040" offset=".8"/><stop stop-color="#868181" offset="1"/></linearGradient><linearGradient id="r"><stop stop-color="#ff5700" offset="0"/><stop stop-color="#ff0" offset="1"/></linearGradient><linearGradient id="q"><stop stop-color="#fff" stop-opacity=".282" offset="0"/><stop stop-color="#fff" stop-opacity=".22" offset="1"/></linearGradient><linearGradient id="p"><stop stop-color="#02f" offset="0"/><stop stop-color="#004dff" offset=".703"/><stop stop-color="#00c9ff" offset="1"/></linearGradient><linearGradient id="w"><stop stop-color="#040038" offset="0"/><stop stop-color="#0b0092" offset="1"/></linearGradient><linearGradient id="v"><stop offset="0"/><stop stop-color="#000008" offset=".711"/><stop stop-color="#2c2828" offset=".823"/><stop stop-color="#3f3f3f" offset=".922"/><stop stop-color="#2a2a2a" offset=".961"/><stop offset="1"/></linearGradient><linearGradient id="n"><stop stop-color="#ccc7c7" offset="0"/><stop stop-color="#393939" offset="1"/></linearGradient><linearGradient id="x"><stop stop-color="#280b0b" offset="0"/><stop stop-color="#511212" offset="1"/></linearGradient><linearGradient id="l"><stop stop-color="#c5ff00" offset="0"/><stop stop-color="#ff8900" offset="1"/></linearGradient><linearGradient id="k"><stop stop-color="#fff" offset="0"/><stop stop-color="#0f0" offset=".243"/><stop stop-color="#00fa00" offset="1"/></linearGradient><linearGradient id="j"><stop stop-color="#f84545" offset="0"/><stop stop-color="red" offset=".2"/><stop stop-color="#040000" offset=".21"/><stop stop-color="#fff" offset=".24"/><stop stop-color="#fff" offset="1"/></linearGradient><linearGradient y2="1.009" x2=".5" y1="-.009" x1=".5" id="E" xlink:href="#f"/><linearGradient y2="1" x2=".5" y1="0" x1=".5" id="ab" xlink:href="#b"/><linearGradient y2="1.004" x2=".5" y1="-.004" x1=".5" id="G" xlink:href="#h"/><linearGradient y2="1" x2=".5" y1="0" x1=".5" id="H" xlink:href="#i"/><linearGradient y2="1" x2=".5" y1="0" x1=".5" id="I" xlink:href="#j"/><linearGradient y2="1" x2=".5" y1="0" x1=".5" id="J" xlink:href="#k"/><linearGradient y2="1" x2="1" y1="0" x1="0" id="K" xlink:href="#l"/><linearGradient y2="1.041" x2=".5" y1="-.041" x1=".5" id="aa" xlink:href="#m"/><linearGradient y2="1" x2=".73" y1="0" x1=".33" id="M" xlink:href="#n"/><linearGradient y2="1.041" x2=".5" y1="-.041" x1=".5" id="Z" xlink:href="#m"/><linearGradient y2="1.041" x2=".5" y1="-.041" x1=".5" id="Y" xlink:href="#m"/><linearGradient y2="0" x2=".5" y1="1" x1=".5" id="P" xlink:href="#o"/><linearGradient y2="1" x2=".5" y1="0" x1=".5" id="Q" xlink:href="#p"/><linearGradient y2="1" x2=".5" y1="0" x1=".5" id="R" xlink:href="#q"/><linearGradient y2="1" x2=".5" y1="0" x1=".5" id="S" xlink:href="#r"/><linearGradient y2=".5" x2="1" y1=".5" x1="0" id="T" xlink:href="#q"/><linearGradient y2="1" x2=".5" y1="0" x1=".5" id="U" xlink:href="#k"/><linearGradient y2="1" x2=".5" y1="0" x1=".5" id="V" xlink:href="#q"/><linearGradient y2="1" x2=".5" y1="0" x1=".5" id="W" xlink:href="#s"/><linearGradient y2="1.041" x2=".5" y1="-.041" x1=".5" id="X" xlink:href="#m"/><radialGradient r="11.962" fy="537.466" fx="757.249" cy="537.466" cx="757.249" gradientTransform="matrix(-.02044 .04475 -.04353 -.01988 890.556 420.192)" gradientUnits="userSpaceOnUse" id="ag" xlink:href="#t"/><radialGradient r="3.435" fy="457.496" fx="-59.667" cy="457.496" cx="-59.667" gradientTransform="matrix(-.63066 .92336 -.82577 -.564 800.637 1013.3)" gradientUnits="userSpaceOnUse" id="ah" xlink:href="#u"/><radialGradient gradientTransform="translate(572.183 255.566)" r="25.212" fy="283.513" fx="177.427" cy="283.513" cx="177.427" gradientUnits="userSpaceOnUse" id="N" xlink:href="#v"/><radialGradient r="9.326" fy="275.756" fx="174.613" cy="275.756" cx="174.613" gradientTransform="matrix(-3.64225 5.49558 -5.33817 -3.53794 1531.97 1131.29)" gradientUnits="userSpaceOnUse" id="O" xlink:href="#w"/><radialGradient r="16.24" fy="264.19" fx="102.852" cy="264.19" cx="102.852" gradientTransform="matrix(-.97249 1.81807 -1.05785 -.56584 991.242 544.451)" gradientUnits="userSpaceOnUse" id="L" xlink:href="#x"/><radialGradient r="3.435" fy="457.496" fx="-59.667" cy="457.496" cx="-59.667" gradientTransform="matrix(-.63066 .92336 -.82577 -.564 1006.18 1013.3)" gradientUnits="userSpaceOnUse" id="ai" xlink:href="#u"/><filter id="D"><feGaussianBlur stdDeviation="1.05"/></filter><filter id="y"><feGaussianBlur stdDeviation=".276"/></filter><filter id="C" height="2.576" y="-.788" width="1.394" x="-.197"><feGaussianBlur stdDeviation="2.626"/></filter><filter id="A" height="1.216" y="-.108" width="1.216" x="-.108"><feGaussianBlur stdDeviation="2.7"/></filter><filter id="B" height="2.218" y="-.609" width="1.304" x="-.152"><feGaussianBlur stdDeviation="2.029"/></filter><filter id="z" height="1.785" y="-.392" width="1.346" x="-.173"><feGaussianBlur stdDeviation="2.301"/></filter></defs><g fill="#8c8989" stroke="#8d8d8d" transform="rotate(17.063 1419.941 809.2) skewX(-15)"><rect stroke-width="15.88" stroke-linecap="round" stroke-linejoin="bevel" width="447.159" height="859.256" x="385.083" y="343.685" rx="42.893" ry="43.429"/><rect stroke-width="3.495" stroke-linecap="round" stroke-linejoin="bevel" width="87.571" height="13.846" x="564.878" y="413.892" rx="5.835" ry="13.846"/><rect stroke-width="4.269" stroke-linecap="round" stroke-linejoin="bevel" width="384.61" height="585.124" x="416.358" y="480.669" rx="21.434" ry="17.237"/><g stroke-linecap="round" stroke-linejoin="bevel"><g stroke-width="2.857"><path d="M648.661 1130.581a40 40 0 11-80 0 40 40 0 1180 0z"/><path d="M570.521 1142.675c5.126 16.181 20.255 27.906 38.125 27.906s33.03-11.725 38.156-27.906c-12.195 2.097-24.978 3.219-38.156 3.219-13.167 0-25.938-1.126-38.125-3.219z"/></g><rect stroke-width="3.5" ry="6.83" rx="9.933" y="1113.251" x="594.188" height="28.947" width="28.947"/></g><rect stroke-width="8" stroke-linecap="round" stroke-linejoin="bevel" width="71.429" height="71.429" x="618.789" y="752.787" rx="16.667" ry="11.46"/><rect stroke-width="8" stroke-linecap="round" stroke-linejoin="bevel" ry="11.46" rx="16.667" y="529.755" x="527.897" height="71.429" width="71.429"/><g font-size="11" font-family="Bitstream Vera Sans"><text filter="url(#y)" transform="translate(.55 -11.788) scale(1.04614)" x="516.03" y="527.914"><tspan x="-11.897" y="253.196">Tuesday</tspan></text><text y="540.344" x="541.409"><tspan y="252.951" x="-10.872">Tuesday</tspan></text></g><text font-size="48" font-family="Bitstream Vera Sans" y="588.589" x="548.51"><tspan y="301.196" x="-3.57">9</tspan></text><rect stroke-width="8" stroke-linecap="round" stroke-linejoin="bevel" ry="11.46" rx="16.667" y="529.755" x="435.758" height="71.429" width="71.429"/><path stroke-width="8" stroke-linecap="round" stroke-linejoin="bevel" d="M472.29 541.3c-14.344 0-25.97 8.478-25.97 18.937 0 4.814 2.47 9.219 6.532 12.562-.631.937-1.75 2.615-1.844 2.75-.433.616-8.928 12.086-8.656 12.313.271.227 13.39-7.393 14.093-7.782.248-.136 2.808-1.49 5-2.656a33.953 33.953 0 0010.844 1.781c14.343 0 26-8.51 26-18.968 0-10.459-11.657-18.938-26-18.938z"/><text font-size="20" font-weight="bold" font-family="Geneva" y="567.822" x="451.73"><tspan y="318.815" x="-87.985">SMS</tspan></text><g stroke-width="8" stroke-linecap="round" stroke-linejoin="bevel"><rect width="71.429" height="71.429" x="618.786" y="529.755" rx="16.667" ry="11.46"/><path filter="url(#z)" d="M654.441 553.748a15.97 7.037 0 11-31.938 0 15.97 7.037 0 1131.938 0zm32.479 22.736a15.97 7.037 0 11-31.938 0 15.97 7.037 0 1131.939 0zm-1.082-33.563a15.97 7.037 0 11-31.938 0 15.97 7.037 0 1131.938 0z"/><path d="M660.824 581.393l-7.094 3.25c-.092.24-.19.479-.281.719-.684 1.785-1.414 3.569-2.125 5.343-.158-.037-.311-.086-.47-.125-1.211-.2-2.432-.171-3.655-.187-1.172-.005-2.36-.001-3.532 0-1.079.02-2.14-.019-3.218-.031-1.276-.144-1.97-.943-2.875-1.75-1.184-.912-2.56-1.558-3.875-2.25-.167-.107-.334-.206-.5-.313l-6.625 4.281c.172.103.327.21.5.313 1.281.66 2.613 1.289 3.812 2.094.945.93 1.74 1.911 3.094 2.218 1.092.068 2.208.158 3.312.094 1.18-.006 2.352-.024 3.532-.031 1.196.01 2.4.013 3.593.125 1.283.23 2.575.367 3.72 1.062.668.31 1.316.625 1.968.97.34 1.323.603 2.663 1.281 3.874l6.938-4.062c-.6-.726-.836-1.586-1.032-2.47l2.032-.905c.043-.06.08-.128.125-.188 1.264-.068 2.545.001 3.812.094 1.708.257 3.25 1.087 4.813 1.781 1.34.738 2.297.488 3.656.25 4.206-1.713 7.203-4.001 10.469-6.719.168-.128.331-.246.5-.375l-6.907 2.782c-.362-.01-.744-.106-1.218-.313-1.636-.697-3.28-1.512-5.032-1.844-1.873-.225-3.735-.385-5.625-.156-2.407.47-4.759 1.336-6.843 2.656.18-1.25.614-2.477 1-3.687.856-1.916 1.633-3.862 2.406-5.813.114-.233.23-.454.344-.687z"/><path d="M677.4 545.931c.203.273-3.942 5.368-3.776 5.665.173.31 6.964-.041 7.105.285.134.313-5.074 4.314-4.98 4.641.096.342 6.785 1.566 6.847 1.916.059.335-5.932 3.027-5.917 3.368.016.355 6.242 3.088 6.221 3.443-.02.34-6.47 1.578-6.534 1.912-.066.35 5.362 4.445 5.26 4.786-.098.326-6.66.043-6.799.353-.145.325 4.192 5.562 4.014 5.87-.17.295-6.49-1.494-6.697-1.224-.216.283 2.796 6.379 2.552 6.637-.233.248-5.97-2.95-6.234-2.735-.275.225 1.25 6.851.953 7.047-.285.186-5.13-4.248-5.436-4.1-.32.156-.364 6.955-.698 7.077-.32.116-4.011-5.316-4.343-5.242-.347.077-1.958 6.683-2.311 6.724-.338.04-2.677-6.098-3.018-6.102-.355-.005-3.446 6.051-3.8 6.01-.338-.04-1.198-6.55-1.528-6.634-.345-.086-4.75 5.094-5.084 4.972-.32-.116.345-6.65.043-6.807-.316-.164-5.796 3.861-6.093 3.666-.285-.188 1.869-6.392 1.61-6.615-.268-.232-6.53 2.42-6.773 2.162-.234-.248 3.292-5.789 3.093-6.064-.209-.288-6.913.849-7.09.54-.17-.294 4.539-4.873 4.408-5.187-.137-.328-6.922-.768-7.024-1.108-.097-.326 5.54-3.696 5.486-4.031-.057-.351-6.558-2.344-6.579-2.699-.02-.34 6.243-2.318 6.268-2.657.025-.355-5.841-3.793-5.78-4.143.06-.335 6.61-.816 6.712-1.14.106-.34-4.809-5.038-4.668-5.364.135-.313 6.62.73 6.793.438.182-.306-3.517-6.01-3.305-6.296.203-.273 6.273 2.237 6.51 1.993.247-.255-2.037-6.66-1.765-6.888.261-.22 5.588 3.623 5.875 3.44.3-.191-.446-6.95-.128-7.11.304-.152 4.6 4.815 4.922 4.703.336-.117 1.169-6.866 1.515-6.948.331-.078 3.367 5.746 3.706 5.711.353-.036 2.72-6.41 3.076-6.41.34 0 1.95 6.367 2.288 6.411.353.046 4.126-5.61 4.472-5.529.331.079.43 6.646.748 6.767.333.126 5.309-4.508 5.627-4.348.304.152-1.115 6.565-.833 6.756.295.2 6.205-3.162 6.478-2.933.26.218-2.599 6.131-2.368 6.382.24.262 6.767-1.646 6.979-1.36z"/><path d="M669.829 563.07a16.24 16.24 0 11-32.48 0 16.24 16.24 0 1132.48 0z"/></g><g stroke-linecap="round" stroke-linejoin="bevel"><rect stroke-width="8" width="71.429" height="71.429" x="710.126" y="529.755" rx="16.667" ry="11.46"/><path stroke-width="8" d="M771.052 565.47a25.212 25.212 0 11-50.424 0 25.212 25.212 0 1150.424 0z"/><path stroke-width=".745" d="M757.858 565.47a12.017 12.017 0 11-24.034 0 12.017 12.017 0 1124.034 0z"/></g><rect stroke-width="8" stroke-linecap="round" stroke-linejoin="bevel" ry="11.46" rx="16.667" y="641.492" x="618.789" height="71.429" width="71.429"/><g stroke-width="8" stroke-linecap="round" stroke-linejoin="bevel"><rect width="71.429" height="71.429" x="527.887" y="641.271" rx="16.667" ry="11.46"/><path d="M544.555 641.271c-9.234 0-16.657 5.089-16.657 11.438v15.125c9.4 5.866 21.92 9.468 35.688 9.468s26.318-3.602 35.719-9.468v-15.125c0-6.35-7.423-11.438-16.657-11.438h-38.093z"/></g><path fill-rule="evenodd" d="M529.087 682.975c2.636.66 4.015-2.182 6.597-2.827 3.33-.833 4.38 1.081 5.655 2.356 2.605 2.605 5.43.326 6.126-1.414l2.828-7.068c.578-1.445 4.77-4.05 5.655-4.713 2.725-2.044 5.04.436 6.126 1.885 1.458 1.943 2.301 3.493 2.828 6.126.546 2.732 3.344 3.04 5.655 1.885 2.76-1.38 1.496-3.908 4.712-4.712 2.228-.557 2.95 3.033 5.655 2.356 2.764-.69 4.744-4.304 5.655-6.126 1.204-2.407 2.86-4.307 3.77-6.126.946-1.89 3.297 2.822 4.242 4.712.911 1.824 3.102 2.16 4.24 3.299"/><g stroke-width="8" stroke-linecap="round" stroke-linejoin="bevel"><rect width="71.429" height="71.429" x="710.13" y="641.271" rx="16.667" ry="11.46"/><path d="M726.798 641.271c-9.234 0-16.657 5.089-16.657 11.438v15.125c9.4 5.866 21.92 9.468 35.688 9.468s26.318-3.602 35.719-9.468v-15.125c0-6.35-7.423-11.438-16.657-11.438h-38.093z"/></g><g stroke-linecap="round" stroke-linejoin="bevel"><path stroke-width="4" filter="url(#A)" d="M1110.22 831.568c.364-.176 6.212 4.801 6.6 4.685.388-.116 2.527-7.492 2.929-7.546.4-.054 4.424 6.486 4.83 6.496.404.009 4.718-6.344 5.116-6.272.398.072 2.204 7.536 2.586 7.67.382.134 6.448-4.575 6.805-4.383.356.191-.233 7.848.089 8.094.322.245 7.547-2.36 7.826-2.067.28.293-2.647 7.393-2.416 7.726.23.332 7.906.088 8.082.453.175.365-4.802 6.213-4.686 6.6.117.388 7.492 2.528 7.546 2.93.054.4-6.486 4.424-6.496 4.829-.009.404 6.344 4.719 6.272 5.117-.072.398-7.536 2.204-7.67 2.586-.134.382 4.575 6.448 4.383 6.804-.191.357-7.848-.233-8.094.09-.245.321 2.36 7.546 2.067 7.826-.293.28-7.393-2.647-7.726-2.417-.332.23-.088 7.906-.453 8.082-.365.176-6.213-4.802-6.6-4.685-.388.116-2.528 7.491-2.929 7.546-.401.054-4.425-6.487-4.83-6.496-.404-.01-4.718 6.344-5.117 6.272-.398-.073-2.204-7.537-2.586-7.67-.382-.134-6.448 4.575-6.804 4.383-.357-.192.233-7.849-.09-8.094-.321-.245-7.546 2.359-7.826 2.066-.28-.292 2.647-7.392 2.417-7.725-.23-.333-7.906-.089-8.082-.453-.176-.365 4.802-6.213 4.685-6.6-.116-.389-7.491-2.528-7.546-2.93-.054-.4 6.487-4.425 6.496-4.83.01-.404-6.344-4.718-6.272-5.116.073-.398 7.537-2.204 7.67-2.586.134-.382-4.575-6.448-4.383-6.805.192-.356 7.849.233 8.094-.089.245-.322-2.359-7.546-2.066-7.826.292-.28 7.392 2.647 7.725 2.416.333-.23.089-7.906.453-8.081z" transform="translate(-107.941 18.552) scale(.75958)"/><path stroke-width="1.263" d="M763.492 671.962a17.648 17.648 0 11-35.295 0 17.648 17.648 0 1135.295 0z"/></g><text font-size="15.973" font-family="Bitstream Vera Sans" x="732.805" y="709.388"><tspan x="165.129" y="416.193">73</tspan></text><g stroke-linecap="round"><g stroke-width="8" stroke-linejoin="bevel"><rect width="71.429" height="71.429" x="435.752" y="752.787" rx="16.667" ry="11.46"/><path d="M452.42 752.787c-9.234 0-16.657 5.089-16.657 11.438v15.125c9.4 5.866 21.92 9.468 35.688 9.468s26.318-3.602 35.718-9.468v-15.125c0-6.35-7.423-11.438-16.656-11.438H452.42z"/></g><path stroke-width="1.5" stroke-linejoin="bevel" d="M498.524 785.904a27.991 27.325 0 11-55.981 0 27.991 27.325 0 1155.981 0z"/><path stroke-width="1.5" stroke-linejoin="bevel" d="M459.3 781.495c.762.153 14.516 2.798 15.247 3.06.73.262-.598 2.067-.63 2.175-.031.11.133 2.329-.63 2.176-.762-.153-13.886-4.974-14.617-5.235-.731-.262-14.65-5.127-14.618-5.236.031-.109 14.485 2.907 15.247 3.06z"/><path stroke-width="1.5" stroke-linejoin="bevel" d="M464.13 791.638c.378-.402 7.114-7.742 7.581-8.035.468-.293 1.678 2.07 1.767 2.18.088.108 2.145 1.777 1.766 2.179-.379.402-8.881 5.563-9.348 5.856-.468.292-9.26 5.964-9.35 5.855-.087-.109 7.204-7.633 7.583-8.035z"/><path fill-rule="evenodd" d="M472.25 786.1l10.826-22.194"/></g><g stroke-linecap="round" stroke-linejoin="bevel"><rect stroke-width="8" width="71.429" height="71.429" x="435.753" y="965.132" rx="16.667" ry="11.46"/><path d="M468.222 992.858l-16.726-18.495 8.363 9.247 8.363 9.248zm27.73 30.662l-16.726-18.494 8.363 9.247 8.363 9.248z" stroke-width=".522"/><path stroke-width="10.604" d="M486.791 1019.924l-32.634-36.086"/></g><g stroke-linecap="round" stroke-linejoin="bevel"><g stroke-width="8"><rect ry="11.46" rx="16.667" y="964.371" x="527.897" height="71.429" width="71.429"/><path d="M544.564 964.37c-9.233 0-16.656 5.09-16.656 11.438v15.125c9.4 5.866 21.919 9.469 35.687 9.469 13.769 0 26.319-3.603 35.72-9.469v-15.125c0-6.349-7.424-11.437-16.657-11.437h-38.094z"/></g><path stroke-width="25" filter="url(#B)" d="M562.816 1022.803a14.662 6.665 0 11-29.323 0 14.662 6.665 0 1129.323 0z"/><path stroke-width="25" filter="url(#C)" d="M594.806 1009.653a11.33 5.15 0 11-22.66 0 11.33 5.15 0 1122.66 0z"/><g stroke-width="25"><path filter="url(#D)" d="M538.257 983.424h50.708v33.323h-50.708z"/><path d="M540.285 984.756h46.652v30.657h-46.652z"/></g><path stroke-width="2.825" d="M563.611 1006.85c-1.159 0-11.01-10.457-11.59-11.008-.58-.55-12.169-10.457-11.59-11.007.58-.55 22.021 0 23.18 0 1.16 0 22.6-.55 23.18 0 .58.55-11.01 10.457-11.59 11.007-.58.55-10.43 11.008-11.59 11.008z"/></g><g stroke-linecap="round" stroke-linejoin="bevel"><g stroke-width="8"><rect width="71.429" height="71.429" x="710.125" y="964.065" rx="16.667" ry="11.46"/><path d="M726.793 964.065c-9.234 0-16.657 5.088-16.657 11.437v15.125c9.4 5.867 21.92 9.47 35.688 9.47s26.318-3.603 35.719-9.47v-15.125c0-6.349-7.423-11.437-16.656-11.437h-38.094z"/></g><rect width="28.149" height="49.802" x="731.765" y="974.878" ry="3.571" rx="3.214"/><path d="M755.84 1011.304a10 10 0 11-20 0 10 10 0 1120 0z"/><path d="M750.126 1011.305a4.286 4.286 0 11-8.572 0 4.286 4.286 0 118.572 0zm-14.822-32.859h21.071v15.714h-21.071z"/></g><rect stroke-width="8" stroke-linecap="round" stroke-linejoin="bevel" width="71.429" height="71.429" x="527.893" y="752.787" rx="16.667" ry="11.46"/><path stroke-width="2" stroke-linecap="round" stroke-linejoin="bevel" d="M591.623 773.507a12.233 12.233 0 11-24.465 0 12.233 12.233 0 1124.465 0z"/><text font-size="32" font-family="Bitstream Vera Sans" x="573.611" y="782.272"><tspan x="65.649" y="541.048">-</tspan></text><path stroke-width="2" stroke-linecap="round" stroke-linejoin="bevel" d="M560.056 773.507a12.233 12.233 0 11-24.465 0 12.233 12.233 0 1124.465 0z"/><text font-size="32" font-family="Bitstream Vera Sans" y="779.149" x="540.281"><tspan font-size="18" y="537.925" x="32.313">+</tspan></text><path stroke-width="2" stroke-linecap="round" stroke-linejoin="bevel" d="M560.056 803.497a12.233 12.233 0 11-24.465 0 12.233 12.233 0 1124.465 0z"/><text font-size="32" font-family="Bitstream Vera Sans" x="542.531" y="808.418"><tspan font-size="18" x="34.563" y="567.194">x</tspan></text><path stroke-width="2" stroke-linecap="round" stroke-linejoin="bevel" d="M591.623 803.497a12.233 12.233 0 11-24.465 0 12.233 12.233 0 1124.465 0z"/><g stroke-linecap="round" stroke-linejoin="bevel"><rect stroke-width="8" width="71.429" height="71.429" x="618.792" y="965.132" rx="16.667" ry="11.46"/><g stroke-width="2"><path d="M654.65 966.67c1.481-.048 3.399 28.238 4.442 29.29 1.056 1.065 29.544 3.53 29.592 5.03.047 1.481-28.239 3.399-29.29 4.442-1.066 1.056-3.532 29.544-5.032 29.591-1.48.048-3.398-28.238-4.44-29.29-1.057-1.065-29.545-3.53-29.593-5.03-.047-1.481 28.239-3.399 29.29-4.442 1.066-1.057 3.532-29.544 5.032-29.592z" stroke-width=".556"/><path d="M663.43 990.148c.456.4-6.884 9.397-6.866 10.004.018.614 7.85 9.322 7.444 9.784-.4.456-9.398-6.884-10.004-6.867-.614.018-9.322 7.85-9.784 7.444-.456-.4 6.884-9.397 6.866-10.003-.018-.615-7.85-9.322-7.444-9.784.4-.456 9.398 6.884 10.004 6.866.614-.018 9.322-7.85 9.784-7.444z" stroke-width=".556"/><path d="M659.797 1000.847a5.29 5.29 0 11-10.582 0 5.29 5.29 0 1110.582 0z" stroke-width=".436"/><g stroke-width=".436"><path d="M655.405 999.436c-.166-.18-2.482-4.264-3.307-3.615-.824.65-12.529 15.766-13.188 16.595-.66.83-13.354 16.415-13.189 16.596.165.18 15.67-12.332 16.495-12.981.825-.65 15.836-12.15 16.495-12.98.66-.83-3.14-3.434-3.306-3.615z"/><path d="M654.922 1000.356c.166.18 2.482 4.263 3.307 3.614.825-.649 12.53-15.765 13.189-16.595.659-.83 13.354-16.414 13.188-16.595-.165-.18-15.67 12.332-16.495 12.98-.825.65-15.835 12.151-16.495 12.981-.66.83 3.141 3.434 3.306 3.615z"/></g></g></g><g stroke-width="8" stroke-linecap="round" stroke-linejoin="bevel"><rect width="71.429" height="71.429" x="710.122" y="752.787" rx="16.667" ry="11.46"/><rect width="65.448" height="65.448" x="713.112" y="755.778" rx="15.271" ry="10.501"/><path d="M747.612 773.007c-3.232-.125-2.34 8.179-5.563 8.437-3.184.255-3.527-8.082-6.656-7.437-3.168.652-.338 8.477-3.406 9.5-3.031 1.01-5.367-7-8.25-5.625-2.92 1.391 1.734 8.335-1 10.062-2.701 1.706-6.905-5.525-9.375-3.5a1.53 1.53 0 00-.532.813v1.062c.432 2.566 3.668 6.326 1.938 8.125-.499.518-1.162.601-1.938.469v15.812c0 5.818 6.79 10.5 15.25 10.5h34.907c8.46 0 15.28-4.682 15.28-10.5v-14.218c-.223-.49-.185-1.05 0-1.657v-7.75c-2.405 1.071-5.354 4.067-7.187 2.688-2.553-1.92 2.707-8.377-.062-9.969-2.804-1.612-5.87 6.113-8.844 4.844-2.938-1.254.633-8.804-2.437-9.688-3.108-.894-4.246 7.365-7.438 6.844-3.153-.514-1.495-8.69-4.687-8.812z"/><path d="M745.533 788.82c-15.64 0-28.65 11.216-31.5 26.03 2.325 3.752 7.738 6.375 14.063 6.375h34.906c6.345 0 11.75-2.635 14.063-6.406-2.861-14.799-15.9-26-31.532-26z"/><path d="M716.955 789.944c-1.818-.12-1.398 4.588-3.218 4.688-.356.019-.657-.163-.907-.438v16.531c0 5.818 6.821 10.5 15.282 10.5h11.437c-.27-.252-.43-.521-.406-.875.12-1.818 4.85-1.367 4.75-3.187-.1-1.82-4.744-.83-5.063-2.625-.318-1.795 4.376-2.476 3.844-4.219-.532-1.743-4.793.291-5.531-1.375-.739-1.666 3.653-3.435 2.719-5-.934-1.565-4.603 1.441-5.72 0-1.115-1.441 2.72-4.204 1.438-5.5-1.281-1.296-4.103 2.507-5.53 1.375-1.43-1.132 1.647-4.736.093-5.687-1.554-.952-3.374 3.414-5.031 2.656-1.658-.758.424-5.01-1.313-5.563-1.737-.552-2.459 4.12-4.25 3.782-1.79-.34-.775-4.942-2.594-5.063zm57.188 0c1.819-.12 1.399 4.588 3.219 4.688.355.02.656-.163.906-.438v16.531c0 5.818-6.821 10.5-15.281 10.5h-11.438c.27-.252.43-.521.406-.875-.12-1.818-4.85-1.367-4.75-3.187.1-1.82 4.745-.83 5.063-2.625.318-1.795-4.376-2.476-3.844-4.219.532-1.743 4.793.291 5.531-1.375.739-1.666-3.652-3.435-2.718-5 .934-1.565 4.603 1.441 5.718 0 1.116-1.441-2.719-4.204-1.437-5.5 1.281-1.296 4.103 2.507 5.531 1.375 1.428-1.132-1.648-4.735-.094-5.687 1.555-.952 3.374 3.413 5.032 2.656 1.657-.758-.425-5.01 1.312-5.563 1.737-.552 2.46 4.12 4.25 3.782 1.791-.34.775-4.942 2.594-5.063z"/></g><path stroke-width="8" stroke-linecap="round" stroke-linejoin="bevel" d="M637.422 641.488v71.437h8.375v-71.437h-8.375z"/><path stroke-width="8" stroke-linecap="round" stroke-linejoin="bevel" d="M618.797 656.385v10.782h71.406v-10.782h-71.406z"/><path fill-rule="evenodd" d="M653.765 679.97v23.397"/><path stroke-width="2" stroke-linecap="round" stroke-linejoin="bevel" d="M660.162 680.091a6.513 6.513 0 11-13.027 0 6.513 6.513 0 1113.027 0z"/><g stroke-linecap="round" stroke-linejoin="bevel"><rect stroke-width="8" ry="11.46" rx="16.667" y="641.271" x="435.762" height="71.429" width="71.429"/><rect stroke-width="2" width="63.457" height="65.282" x="439.748" y="644.136" rx="31.728" ry="8.779"/><rect stroke-width="2" ry="6.377" rx="26.232" y="648.259" x="445.244" height="47.419" width="52.464"/><path d="M457.783 700.915a3.435 3.435 0 11-6.87 0 3.435 3.435 0 116.87 0zm34.257 0a3.435 3.435 0 11-6.871 0 3.435 3.435 0 116.87 0z" stroke-width="2"/><path stroke-width="8" d="M452.429 641.271c-9.233 0-16.656 5.089-16.656 11.438v15.125c9.4 5.866 21.919 9.468 35.687 9.468 13.769 0 26.319-3.602 35.719-9.468v-15.125c0-6.35-7.423-11.438-16.656-11.438h-38.094z"/></g><path d="M441.235 494.862h3.262v9.21h-3.262zm-6.396 3.194h3.261v6.016h-3.261zm12.792-7.453h3.261v13.469h-3.26zm6.396-2.84h3.261v16.308h-3.261zm-25.584 12.068h3.261v4.24h-3.261z" stroke-width="1.678" stroke-linecap="round" stroke-linejoin="bevel"/><text font-size="16" font-family="Bitstream Vera Sans" y="503.347" x="461.44"><tspan y="261.302" x="-49.503">cingular</tspan></text><text font-size="18" font-family="Bitstream Vera Sans" y="503.817" x="578.91"><tspan y="261.772" x="67.967">9:41 AM</tspan></text><g stroke-linecap="round" stroke-linejoin="bevel"><path stroke-width="2" d="M742.959 488.096h36.568v15.132h-36.568z"/><path stroke-width="1.391" d="M746.215 490.966h30.056v9.392h-30.056zm33.4 2.162h4.707v5.069h-4.707z"/></g><text font-size="15" x="730.127" y="1055.94"><tspan x="1956.1" y="842.696">iPod</tspan></text><text font-size="15" y="1055.94" x="638.347"><tspan y="842.696" x="1864.32">Web</tspan></text><text font-size="15" x="548.337" y="1055.94"><tspan x="1774.31" y="842.696">Mail</tspan></text><text font-size="15" y="1055.94" x="447.887"><tspan y="842.696" x="1673.86">Phone</tspan></text><text font-size="15" y="845.689" x="714.937"><tspan y="632.439" x="1940.91">Settings</tspan></text><text font-size="15" x="632.487" y="846.033"><tspan x="1858.46" y="632.783">Notes</tspan></text><text font-size="15" y="846.033" x="525.047"><tspan y="632.783" x="1751.02">Calculator</tspan></text><text font-size="15" x="450.687" y="846.033"><tspan x="1676.66" y="632.783">Clock</tspan></text><text font-size="15" y="734.494" x="441.367"><tspan y="521.244" x="1667.34">YouTube</tspan></text><text font-size="15" x="538.797" y="734.494"><tspan x="1764.77" y="521.244">Stocks</tspan></text><text font-size="15" y="734.151" x="634.387"><tspan y="520.901" x="1860.36">Maps</tspan></text><text font-size="15" x="714.027" y="734.494"><tspan x="1940" y="521.244">Weather</tspan></text><text font-size="15" y="621.33" x="716.657"><tspan y="408.08" x="1942.63">Camera</tspan></text><text font-size="15" x="628.827" y="621.33"><tspan x="1854.8" y="408.08">Photos</tspan></text><text font-size="15" y="621.33" x="529.427"><tspan y="408.08" x="1755.4">Calendar</tspan></text><text font-size="15" x="456.527" y="621.33"><tspan x="1682.5" y="408.08">Text</tspan></text></g><g transform="rotate(17.063 1532.067 736.454) skewX(-15)"><rect stroke="url(#E)" stroke-width="15.88" stroke-linecap="round" stroke-linejoin="bevel" ry="43.429" rx="42.893" y="343.685" x="385.083" height="859.256" width="447.159"/><rect fill="#171717" stroke="url(#F)" stroke-width="3.495" stroke-linecap="round" stroke-linejoin="bevel" ry="13.846" rx="5.835" y="413.892" x="564.877" height="13.846" width="87.571"/><rect fill="url(#G)" stroke="#575757" stroke-width="4.269" stroke-linecap="round" stroke-linejoin="bevel" ry="17.237" rx="21.434" y="480.669" x="416.358" height="585.124" width="384.61"/><path stroke="#373737" stroke-width="2.857" stroke-linecap="round" stroke-linejoin="bevel" d="M648.661 1130.582a40 40 0 11-80 0 40 40 0 1180 0z"/><path fill="#fffcfc" fill-opacity=".376" d="M570.52 1142.675c5.127 16.181 20.256 27.906 38.126 27.906 17.87 0 33.03-11.725 38.156-27.906-12.196 2.097-24.978 3.219-38.156 3.219-13.167 0-25.938-1.126-38.125-3.219z"/><rect fill="none" stroke="#bebebe" stroke-width="3.5" stroke-linecap="round" stroke-linejoin="bevel" width="28.947" height="28.947" x="594.188" y="1113.251" rx="9.933" ry="6.83"/><rect fill="url(#H)" ry="11.46" rx="16.667" y="752.787" x="618.789" height="71.429" width="71.429"/><rect fill="url(#I)" width="71.429" height="71.429" x="527.897" y="529.755" rx="16.667" ry="11.46"/><g font-size="11" font-family="Bitstream Vera Sans"><text filter="url(#y)" y="527.914" x="516.03" transform="translate(.55 -11.788) scale(1.04614)"><tspan y="253.196" x="-11.897">Tuesday</tspan></text><text fill="#fffcfc" x="541.409" y="540.344"><tspan x="-10.872" y="252.951">Tuesday</tspan></text></g><text font-size="48" font-family="Bitstream Vera Sans" x="548.51" y="588.589"><tspan x="-3.57" y="301.196">9</tspan></text><rect fill="url(#J)" width="71.429" height="71.429" x="435.758" y="529.755" rx="16.667" ry="11.46"/><path fill="#fff" d="M472.29 541.3c-14.344 0-25.97 8.478-25.97 18.937 0 4.814 2.47 9.219 6.532 12.562-.631.938-1.75 2.615-1.844 2.75-.433.616-8.928 12.086-8.656 12.313.27.227 13.39-7.393 14.093-7.782.247-.136 2.808-1.49 5-2.656a33.95 33.95 0 0010.844 1.781c14.343 0 26-8.51 26-18.968 0-10.459-11.657-18.938-26-18.938z"/><text font-size="20" font-weight="bold" fill="#0f0" font-family="Geneva" x="451.73" y="567.822"><tspan x="-87.985" y="318.815">SMS</tspan></text><rect fill="#0ff" ry="11.46" rx="16.667" y="529.755" x="618.786" height="71.429" width="71.429"/><path fill="#e6e6e6" filter="url(#z)" d="M654.44 553.748a15.97 7.037 0 11-31.937 0 15.97 7.037 0 1131.938 0zm32.48 22.736a15.97 7.037 0 11-31.938 0 15.97 7.037 0 1131.938 0zm-1.082-33.563a15.97 7.037 0 11-31.938 0 15.97 7.037 0 1131.938 0z"/><path fill="green" d="M660.823 581.393l-7.093 3.25c-.092.24-.19.479-.282.719-.683 1.785-1.413 3.569-2.125 5.343-.157-.037-.31-.086-.468-.125-1.212-.2-2.433-.171-3.657-.187-1.171-.005-2.359-.001-3.53 0-1.08.02-2.141-.019-3.22-.031-1.275-.144-1.97-.943-2.875-1.75-1.183-.912-2.558-1.558-3.875-2.25-.166-.107-.333-.206-.5-.313l-6.625 4.281c.173.103.328.21.5.313 1.282.66 2.614 1.289 3.813 2.094.945.93 1.739 1.911 3.094 2.218 1.092.068 2.208.158 3.312.094 1.18-.006 2.352-.024 3.531-.031 1.197.01 2.401.013 3.594.125 1.283.23 2.574.367 3.719 1.062.67.31 1.317.625 1.969.97.34 1.323.603 2.663 1.281 3.874l6.937-4.062c-.6-.726-.835-1.586-1.03-2.47l2.03-.905c.044-.06.082-.128.125-.188 1.265-.068 2.546.001 3.813.094 1.708.257 3.25 1.087 4.812 1.781 1.342.738 2.298.488 3.657.25 4.206-1.713 7.202-4.001 10.468-6.719.169-.128.332-.246.5-.375l-6.906 2.782c-.362-.01-.744-.106-1.219-.313-1.635-.697-3.28-1.512-5.03-1.844-1.874-.225-3.736-.385-5.626-.156-2.407.47-4.759 1.336-6.844 2.656.18-1.25.615-2.477 1-3.687.857-1.916 1.633-3.862 2.407-5.813.114-.233.23-.454.343-.687z"/><path fill="url(#K)" d="M677.4 545.931c.203.273-3.943 5.368-3.776 5.665.173.31 6.964-.041 7.105.285.134.313-5.074 4.314-4.981 4.641.097.342 6.786 1.566 6.847 1.916.06.335-5.931 3.027-5.916 3.368.016.355 6.242 3.088 6.221 3.443-.02.34-6.47 1.578-6.534 1.912-.066.35 5.361 4.445 5.26 4.786-.098.326-6.66.043-6.8.353-.144.325 4.193 5.562 4.015 5.87-.17.295-6.49-1.494-6.697-1.224-.216.283 2.796 6.379 2.552 6.637-.234.248-5.97-2.95-6.234-2.735-.276.225 1.25 6.851.952 7.047-.284.186-5.129-4.248-5.435-4.1-.32.156-.364 6.955-.698 7.077-.32.116-4.011-5.316-4.343-5.242-.347.077-1.958 6.683-2.311 6.724-.338.04-2.678-6.098-3.018-6.102-.355-.005-3.447 6.051-3.8 6.01-.338-.04-1.198-6.55-1.528-6.634-.345-.086-4.75 5.094-5.084 4.972-.32-.116.345-6.65.043-6.807-.316-.164-5.796 3.861-6.093 3.666-.285-.188 1.868-6.392 1.61-6.615-.269-.232-6.53 2.42-6.773 2.162-.234-.248 3.292-5.789 3.093-6.064-.209-.288-6.913.849-7.09.54-.17-.294 4.538-4.873 4.408-5.187-.137-.328-6.922-.768-7.024-1.108-.098-.326 5.54-3.696 5.486-4.031-.057-.351-6.558-2.344-6.579-2.699-.02-.34 6.243-2.318 6.267-2.657.026-.355-5.84-3.793-5.779-4.143.06-.335 6.61-.816 6.712-1.14.106-.34-4.81-5.038-4.668-5.364.135-.313 6.62.73 6.793.438.182-.306-3.517-6.01-3.305-6.296.203-.273 6.273 2.237 6.51 1.993.247-.255-2.037-6.66-1.765-6.888.26-.22 5.588 3.623 5.875 3.44.3-.191-.446-6.95-.129-7.11.305-.152 4.602 4.815 4.923 4.703.336-.117 1.169-6.866 1.515-6.948.331-.078 3.367 5.746 3.705 5.711.354-.036 2.721-6.41 3.077-6.41.34 0 1.95 6.367 2.288 6.411.353.046 4.126-5.61 4.472-5.529.331.079.43 6.646.748 6.767.333.126 5.309-4.508 5.626-4.348.305.152-1.114 6.565-.832 6.756.295.2 6.205-3.162 6.478-2.933.26.218-2.599 6.131-2.369 6.382.241.262 6.767-1.646 6.98-1.36z"/><path fill="url(#L)" d="M669.829 563.07a16.24 16.24 0 11-32.48 0 16.24 16.24 0 1132.48 0z"/><rect fill="url(#M)" ry="11.46" rx="16.667" y="529.755" x="710.126" height="71.429" width="71.429"/><path fill="url(#N)" d="M771.052 565.47a25.212 25.212 0 11-50.424 0 25.212 25.212 0 1150.424 0z"/><path fill="url(#O)" stroke="#514e4e" stroke-width=".745" stroke-linecap="round" stroke-linejoin="bevel" d="M757.858 565.47a12.017 12.017 0 11-24.034 0 12.017 12.017 0 1124.034 0z"/><rect fill="url(#P)" width="71.429" height="71.429" x="618.789" y="641.492" rx="16.667" ry="11.46"/><rect fill="#00f" ry="11.46" rx="16.667" y="641.271" x="527.887" height="71.429" width="71.429"/><path fill="#fff" fill-opacity=".222" d="M544.555 641.271c-9.234 0-16.657 5.089-16.657 11.438v15.125c9.4 5.866 21.92 9.468 35.688 9.468s26.318-3.602 35.719-9.468v-15.125c0-6.35-7.423-11.438-16.657-11.438h-38.093z"/><path fill="none" stroke="#fff3f3" d="M529.086 682.975c2.637.66 4.016-2.182 6.598-2.827 3.33-.833 4.38 1.081 5.655 2.356 2.605 2.605 5.43.326 6.126-1.414l2.828-7.068c.577-1.445 4.77-4.05 5.655-4.713 2.725-2.044 5.04.436 6.126 1.885 1.458 1.944 2.3 3.493 2.828 6.126.546 2.732 3.344 3.04 5.655 1.885 2.76-1.38 1.496-3.908 4.712-4.712 2.228-.557 2.95 3.033 5.655 2.356 2.764-.69 4.744-4.304 5.655-6.126 1.203-2.407 2.86-4.307 3.77-6.126.945-1.89 3.296 2.822 4.242 4.712.911 1.824 3.102 2.16 4.24 3.299"/><rect fill="url(#Q)" ry="11.46" rx="16.667" y="641.271" x="710.13" height="71.429" width="71.429"/><path fill="url(#R)" d="M726.797 641.271c-9.233 0-16.656 5.089-16.656 11.438v15.125c9.4 5.866 21.92 9.468 35.688 9.468s26.318-3.602 35.718-9.468v-15.125c0-6.35-7.422-11.438-16.656-11.438h-38.094z"/><path fill="#ff6500" filter="url(#A)" d="M1110.22 831.568c.364-.176 6.212 4.801 6.6 4.685.388-.116 2.527-7.492 2.929-7.546.4-.054 4.424 6.486 4.83 6.496.404.009 4.718-6.344 5.116-6.272.398.072 2.204 7.536 2.586 7.67.382.134 6.448-4.575 6.805-4.383.356.191-.233 7.848.089 8.094.322.245 7.547-2.36 7.826-2.067.28.293-2.647 7.393-2.416 7.726.23.332 7.906.088 8.082.453.175.365-4.802 6.213-4.686 6.6.117.388 7.492 2.528 7.546 2.93.054.4-6.486 4.424-6.496 4.829-.009.404 6.344 4.719 6.272 5.117-.072.398-7.536 2.204-7.67 2.586-.134.382 4.575 6.448 4.383 6.804-.191.357-7.848-.232-8.094.09-.245.322 2.36 7.546 2.067 7.826-.293.28-7.393-2.647-7.726-2.417-.332.23-.088 7.906-.453 8.082-.365.176-6.213-4.802-6.6-4.685-.388.116-2.528 7.491-2.929 7.546-.401.054-4.425-6.487-4.83-6.496-.404-.01-4.718 6.344-5.117 6.272-.398-.073-2.204-7.537-2.586-7.67-.382-.134-6.448 4.575-6.804 4.383-.357-.192.233-7.849-.09-8.094-.321-.245-7.546 2.359-7.826 2.066-.28-.292 2.647-7.392 2.417-7.725-.23-.333-7.906-.089-8.082-.453-.176-.365 4.802-6.213 4.685-6.6-.116-.389-7.491-2.528-7.546-2.93-.054-.4 6.487-4.424 6.496-4.83.01-.404-6.344-4.718-6.272-5.116.073-.398 7.537-2.204 7.67-2.586.134-.382-4.575-6.448-4.383-6.805.192-.356 7.849.233 8.094-.089.245-.322-2.359-7.546-2.066-7.826.292-.28 7.392 2.647 7.725 2.416.333-.23.089-7.906.453-8.081z" transform="translate(-107.941 18.552) scale(.75958)"/><path fill="url(#S)" stroke="#ff9808" stroke-width="1.663" stroke-linecap="round" stroke-linejoin="bevel" d="M1147.25 860.22a23.234 23.234 0 11-46.468 0 23.234 23.234 0 1146.467 0z" transform="translate(-107.941 18.552) scale(.75958)"/><text font-size="15.973" fill="#fff" font-family="Bitstream Vera Sans" y="709.388" x="732.805"><tspan y="416.193" x="165.129">73</tspan></text><rect fill="#1a1a1a" ry="11.46" rx="16.667" y="752.787" x="435.752" height="71.429" width="71.429"/><path fill="url(#T)" d="M452.42 752.787c-9.234 0-16.657 5.089-16.657 11.438v15.125c9.4 5.866 21.92 9.469 35.688 9.469s26.318-3.603 35.718-9.47v-15.124c0-6.35-7.423-11.438-16.656-11.438H452.42z"/><path fill="#fff" d="M498.524 785.904a27.991 27.325 0 11-55.981 0 27.991 27.325 0 1155.981 0z"/><path d="M459.3 781.495c.762.153 14.516 2.798 15.247 3.06.73.262-.598 2.067-.63 2.175-.031.11.133 2.329-.63 2.176-.762-.153-13.886-4.974-14.617-5.235-.731-.262-14.65-5.127-14.618-5.236.031-.109 14.485 2.907 15.247 3.06z"/><path d="M464.129 791.638c.379-.402 7.115-7.742 7.582-8.035.468-.293 1.678 2.07 1.767 2.18.088.108 2.145 1.777 1.766 2.18-.379.4-8.881 5.562-9.349 5.855-.467.292-9.26 5.964-9.348 5.855-.089-.109 7.203-7.633 7.582-8.035z"/><path fill="none" stroke="#fe0000" stroke-linecap="round" d="M472.25 786.1l10.826-22.194"/><rect fill="url(#U)" ry="11.46" rx="16.667" y="965.132" x="435.753" height="71.429" width="71.429"/><g fill="#fff" stroke="#fff" stroke-linecap="round" stroke-linejoin="bevel"><path d="M468.222 992.858l-16.726-18.495 8.363 9.247 8.363 9.248zm27.73 30.662l-16.726-18.494 8.363 9.247 8.363 9.248z" stroke-width=".522"/><path stroke-width="10.604" d="M486.791 1019.924l-32.635-36.086" fill="none"/></g><rect fill="#0059ff" width="71.429" height="71.429" x="527.897" y="964.371" rx="16.667" ry="11.46"/><path fill="#fff" fill-opacity=".22" d="M544.564 964.37c-9.233 0-16.656 5.09-16.656 11.438v15.125c9.4 5.866 21.919 9.469 35.687 9.469 13.769 0 26.319-3.603 35.719-9.469v-15.125c0-6.349-7.423-11.437-16.656-11.437h-38.094z"/><path fill="#fff" filter="url(#B)" d="M562.816 1022.803a14.662 6.665 0 11-29.324 0 14.662 6.665 0 1129.324 0z"/><path fill="#fff" filter="url(#C)" d="M594.806 1009.653a11.33 5.15 0 11-22.66 0 11.33 5.15 0 1122.66 0z"/><path fill="#000001" filter="url(#D)" d="M538.257 983.424h50.708v33.323h-50.708z"/><path fill="#fff" d="M540.285 984.756h46.652v30.657h-46.652z"/><path fill="none" stroke="#000" stroke-width="2.825" stroke-linecap="round" stroke-linejoin="bevel" d="M563.611 1006.85c-1.159 0-11.01-10.457-11.59-11.008-.58-.55-12.17-10.457-11.59-11.007.58-.55 22.021 0 23.18 0 1.159 0 22.6-.55 23.18 0 .58.55-11.01 10.457-11.59 11.007-.58.55-10.431 11.008-11.59 11.008z"/><rect fill="#f60" ry="11.46" rx="16.667" y="964.065" x="710.125" height="71.429" width="71.429"/><path fill="url(#V)" d="M726.793 964.065c-9.234 0-16.657 5.089-16.657 11.437v15.125c9.4 5.867 21.92 9.47 35.688 9.47s26.318-3.603 35.719-9.47v-15.125c0-6.349-7.423-11.437-16.657-11.437h-38.093z"/><rect fill="#fff" rx="3.214" ry="3.571" y="974.878" x="731.765" height="49.802" width="28.149"/><path fill="#f60" d="M755.84 1011.304a10 10 0 11-20 0 10 10 0 1120 0z"/><path fill="#fff" d="M750.126 1011.305a4.286 4.286 0 11-8.572 0 4.286 4.286 0 118.572 0z"/><path fill="#ff8d41" d="M735.304 978.446h21.071v15.714h-21.071z"/><rect fill="url(#W)" ry="11.46" rx="16.667" y="752.787" x="527.892" height="71.429" width="71.429"/><path fill="url(#X)" stroke="#3f3f3f" stroke-width="2" stroke-linecap="round" stroke-linejoin="bevel" d="M591.623 773.507a12.233 12.233 0 11-24.465 0 12.233 12.233 0 1124.465 0z"/><text font-size="32" fill="#fff" font-family="Bitstream Vera Sans" y="782.272" x="573.611"><tspan y="541.048" x="65.649">-</tspan></text><path fill="url(#Y)" stroke="#3f3f3f" stroke-width="2" stroke-linecap="round" stroke-linejoin="bevel" d="M560.056 773.507a12.233 12.233 0 11-24.465 0 12.233 12.233 0 1124.465 0z"/><text font-size="32" fill="#fff" font-family="Bitstream Vera Sans" x="540.281" y="779.149"><tspan font-size="18" x="32.313" y="537.925">+</tspan></text><path fill="url(#Z)" stroke="#3f3f3f" stroke-width="2" stroke-linecap="round" stroke-linejoin="bevel" d="M560.056 803.497a12.233 12.233 0 11-24.465 0 12.233 12.233 0 1124.465 0z"/><text font-size="32" fill="#fff" font-family="Bitstream Vera Sans" y="808.418" x="542.531"><tspan font-size="18" y="567.194" x="34.563">x</tspan></text><path fill="url(#aa)" stroke="#3f3f3f" stroke-width="2" stroke-linecap="round" stroke-linejoin="bevel" d="M591.623 803.497a12.233 12.233 0 11-24.465 0 12.233 12.233 0 1124.465 0z"/><rect fill="url(#ab)" ry="11.46" rx="16.667" y="965.132" x="618.792" height="71.429" width="71.429"/><g fill="#fff"><path d="M654.65 966.67c1.481-.048 3.399 28.238 4.442 29.29 1.056 1.065 29.543 3.53 29.591 5.03.048 1.481-28.238 3.399-29.29 4.442-1.065 1.056-3.53 29.544-5.03 29.591-1.481.048-3.399-28.238-4.442-29.29-1.057-1.065-29.544-3.53-29.592-5.03-.047-1.481 28.239-3.399 29.29-4.442 1.066-1.056 3.532-29.544 5.032-29.592z"/><path d="M663.43 990.148c.456.4-6.884 9.397-6.866 10.004.018.614 7.849 9.322 7.444 9.784-.4.456-9.398-6.884-10.004-6.867-.615.018-9.322 7.85-9.784 7.444-.456-.4 6.884-9.397 6.866-10.003-.018-.615-7.85-9.322-7.444-9.784.4-.456 9.398 6.884 10.004 6.866.614-.018 9.322-7.85 9.784-7.444z"/></g><path fill="#0ff" d="M659.797 1000.847a5.29 5.29 0 11-10.582 0 5.29 5.29 0 1110.582 0z"/><path fill="url(#ac)" d="M1906.44 1648.615c-.76-.829-11.394-19.573-15.18-16.594-3.787 2.98-57.521 72.379-60.55 76.188-3.026 3.81-61.307 75.358-60.548 76.188.76.83 71.942-56.614 75.729-59.594 3.786-2.98 72.7-55.783 75.728-59.593 3.028-3.81-14.42-15.765-15.18-16.595z" transform="translate(240.146 640.336) scale(.21782)"/><path fill="url(#ad)" d="M1904.225 1652.84c.759.83 11.393 19.574 15.18 16.594 3.786-2.98 57.52-72.378 60.548-76.188 3.028-3.809 61.308-75.358 60.55-76.188-.76-.83-71.943 56.614-75.73 59.594-3.786 2.98-72.7 55.784-75.728 59.593-3.027 3.81 14.421 15.765 15.18 16.595z" transform="translate(240.146 640.336) scale(.21782)"/><rect fill="#5d5d5d" ry="11.46" rx="16.667" y="752.787" x="710.122" height="71.429" width="71.429"/><rect fill="url(#ae)" ry="10.501" rx="15.271" y="755.778" x="713.112" height="65.448" width="65.448"/><path fill="#cec8c8" d="M747.611 773.007c-3.231-.125-2.338 8.179-5.562 8.437-3.184.256-3.527-8.082-6.656-7.437-3.168.652-.338 8.477-3.407 9.5-3.03 1.01-5.366-7-8.25-5.625-2.919 1.391 1.735 8.335-1 10.062-2.7 1.706-6.904-5.525-9.375-3.5a1.53 1.53 0 00-.53.813v1.062c.431 2.566 3.667 6.326 1.937 8.125-.499.518-1.162.601-1.938.469v15.812c0 5.818 6.79 10.5 15.25 10.5h34.906c8.46 0 15.282-4.682 15.282-10.5v-14.218c-.224-.49-.186-1.05 0-1.657v-7.75c-2.406 1.071-5.355 4.067-7.188 2.688-2.553-1.92 2.707-8.377-.062-9.969-2.804-1.612-5.87 6.113-8.844 4.844-2.938-1.254.633-8.804-2.438-9.688-3.107-.894-4.245 7.365-7.437 6.844-3.153-.514-1.495-8.69-4.688-8.812z"/><path fill="url(#af)" d="M745.533 788.82c-15.641 0-28.65 11.216-31.5 26.03 2.325 3.752 7.738 6.375 14.063 6.375h34.906c6.345 0 11.75-2.635 14.063-6.406-2.862-14.799-15.9-26-31.532-26z"/><path fill="#a5a5a5" d="M716.955 789.944c-1.818-.12-1.399 4.588-3.219 4.688-.355.02-.656-.163-.906-.438v16.531c0 5.818 6.821 10.5 15.281 10.5h11.438c-.27-.252-.43-.521-.406-.875.12-1.818 4.85-1.367 4.75-3.187-.1-1.82-4.745-.83-5.063-2.625-.318-1.795 4.376-2.476 3.844-4.219-.532-1.743-4.793.291-5.531-1.375-.739-1.666 3.652-3.435 2.718-5-.933-1.565-4.603 1.441-5.718 0-1.116-1.441 2.719-4.204 1.437-5.5-1.281-1.296-4.103 2.507-5.531 1.375-1.428-1.132 1.648-4.735.094-5.687-1.555-.952-3.374 3.414-5.032 2.656-1.657-.758.425-5.01-1.312-5.563-1.737-.552-2.46 4.12-4.25 3.782-1.79-.34-.775-4.942-2.594-5.063zm57.188 0c1.818-.12 1.399 4.588 3.218 4.688.356.02.657-.163.907-.438v16.531c0 5.818-6.821 10.5-15.282 10.5H751.55c.27-.252.43-.521.406-.875-.12-1.818-4.85-1.367-4.75-3.187.1-1.82 4.745-.83 5.063-2.625.318-1.795-4.376-2.476-3.844-4.219.532-1.743 4.793.291 5.531-1.375.739-1.666-3.652-3.435-2.719-5 .934-1.565 4.603 1.441 5.72 0 1.115-1.441-2.72-4.204-1.438-5.5 1.281-1.296 4.103 2.507 5.53 1.375 1.43-1.132-1.647-4.735-.093-5.687 1.555-.952 3.374 3.414 5.031 2.656 1.658-.758-.424-5.01 1.313-5.563 1.737-.552 2.46 4.12 4.25 3.782 1.79-.34.775-4.942 2.594-5.063z"/><path fill="#ff0" d="M637.422 641.488v71.437h8.375v-71.437h-8.375z"/><path fill="#f60" d="M618.797 656.385v10.782h71.406v-10.782h-71.406z"/><path fill="none" stroke="#575757" d="M653.765 679.97v23.397"/><path fill="url(#ag)" d="M660.162 680.091a6.513 6.513 0 11-13.027 0 6.513 6.513 0 1113.027 0z"/><rect fill="#520" width="71.429" height="71.429" x="435.761" y="641.271" rx="16.667" ry="11.46"/><rect fill="olive" ry="8.779" rx="31.728" y="644.136" x="439.747" height="65.282" width="63.457"/><rect fill="#333" width="52.464" height="47.419" x="445.244" y="648.259" rx="26.232" ry="6.377"/><path fill="url(#ah)" d="M457.783 700.915a3.435 3.435 0 11-6.87 0 3.435 3.435 0 116.87 0z"/><path fill="url(#ai)" d="M492.04 700.915a3.435 3.435 0 11-6.871 0 3.435 3.435 0 116.87 0z"/><path fill="url(#aj)" d="M452.429 641.271c-9.234 0-16.656 5.089-16.656 11.438v15.125c9.4 5.866 21.919 9.468 35.687 9.468 13.768 0 26.318-3.602 35.719-9.468v-15.125c0-6.35-7.423-11.438-16.656-11.438h-38.094z"/><path d="M441.235 494.862h3.262v9.21h-3.262zm-6.396 3.194h3.261v6.016h-3.261zm12.792-7.453h3.261v13.469h-3.26zm6.396-2.839h3.261v16.308h-3.261zm-25.584 12.067h3.261v4.24h-3.261z" fill="#fff"/><text font-size="16" fill="#fff" font-family="Bitstream Vera Sans" x="461.44" y="503.347"><tspan x="-49.503" y="261.302">cingular</tspan></text><text font-size="18" fill="#fff" font-family="Bitstream Vera Sans" x="578.91" y="503.817"><tspan x="67.967" y="261.772">9:41 AM</tspan></text><path fill="none" stroke="#fff" stroke-width="2" stroke-linecap="round" stroke-linejoin="bevel" d="M742.959 488.096h36.568v15.132h-36.568z"/><path fill="#fff" d="M746.215 490.966h30.056v9.392h-30.056zm33.4 2.162h4.707v5.069h-4.707z"/><text font-size="15" fill="#fff" y="1055.94" x="730.127"><tspan y="842.696" x="1956.1">iPod</tspan></text><text font-size="15" fill="#fff" x="638.347" y="1055.94"><tspan x="1864.32" y="842.696">Web</tspan></text><text font-size="15" fill="#fff" y="1055.94" x="548.337"><tspan y="842.696" x="1774.31">Mail</tspan></text><text font-size="15" fill="#fff" x="447.887" y="1055.94"><tspan x="1673.86" y="842.696">Phone</tspan></text><text font-size="15" fill="#fff" x="714.937" y="845.689"><tspan x="1940.91" y="632.439">Settings</tspan></text><text font-size="15" fill="#fff" y="846.033" x="632.487"><tspan y="632.783" x="1858.46">Notes</tspan></text><text font-size="15" fill="#fff" x="525.047" y="846.033"><tspan x="1751.02" y="632.783">Calculator</tspan></text><text font-size="15" fill="#fff" y="846.033" x="450.687"><tspan y="632.783" x="1676.66">Clock</tspan></text><text font-size="15" fill="#fff" x="441.367" y="734.494"><tspan x="1667.34" y="521.244">YouTube</tspan></text><text font-size="15" fill="#fff" y="734.494" x="538.797"><tspan y="521.244" x="1764.77">Stocks</tspan></text><text font-size="15" fill="#fff" x="634.387" y="734.151"><tspan x="1860.36" y="520.901">Maps</tspan></text><text font-size="15" fill="#fff" y="734.494" x="714.027"><tspan y="521.244" x="1940">Weather</tspan></text><text font-size="15" fill="#fff" x="716.657" y="621.33"><tspan x="1942.63" y="408.08">Camera</tspan></text><text font-size="15" fill="#fff" y="621.33" x="628.827"><tspan y="408.08" x="1854.8">Photos</tspan></text><text font-size="15" fill="#fff" x="529.427" y="621.33"><tspan x="1755.4" y="408.08">Calendar</tspan></text><text font-size="15" fill="#fff" y="621.33" x="456.527"><tspan y="408.08" x="1682.5">Text</tspan></text></g></svg>