<?xml version="1.0" encoding="utf-8"?>
<!-- Designed by Vexels.com - 2020 All Rights Reserved - https://vexels.com/terms-and-conditions/  -->
<svg version="1.1" id="Capa_1" xmlns="http://www.w3.org/2000/svg" xmlns:xlink="http://www.w3.org/1999/xlink" x="0px" y="0px"
	 viewBox="0 0 1200 1200" enable-background="new 0 0 1200 1200" xml:space="preserve">
<g>
	<g>
		<g>
			<g>
				<g>
					<path fill="#60197C" d="M400.299,380.751l-261.472,52.071c-89.746,17.873-111.955,135.991-34.829,185.239l233.727,149.245
						L400.299,380.751z"/>
				</g>
				<g>
					<path fill="#E3AF31" d="M1012.881,258.757l-249.862,49.759l206.273,318.221l146.726-210.216
						C1168.392,341.484,1102.627,240.885,1012.881,258.757z"/>
				</g>
			</g>
			<g>
				<linearGradient id="SVGID_1_" gradientUnits="userSpaceOnUse" x1="337.7252" y1="637.4747" x2="969.2916" y2="637.4747">
					<stop  offset="0" style="stop-color:#BE3475"/>
					<stop  offset="1" style="stop-color:#C75542"/>
				</linearGradient>
				<path fill="url(#SVGID_1_)" d="M337.725,767.306l286.828,183.152c45.916,29.319,106.786,17.197,137.966-27.475l206.773-296.245
					L763.019,308.516l-362.72,72.234L337.725,767.306z"/>
			</g>
			<g>
				<g>
					<path fill="#D0783E" d="M624.553,950.458L337.725,767.306l-42.829,264.582c-14.47,89.387,86.41,151.605,159.791,98.552
						l205.991-148.928c10.638-7.692,22.567-13.042,35.036-16.141c0.018-0.136,0.045-0.272,0.065-0.408
						C671.866,968.922,646.508,964.478,624.553,950.458z"/>
				</g>
				<g>
					<path fill="#BE3475" d="M1126.319,868.987L969.292,626.738L762.519,922.982c-14.753,21.137-36.178,34.881-59.495,40.502
						c0.024,0.123,0.044,0.22,0.069,0.346c12.536-2.144,25.475-2.064,38.188,0.633l278.712,59.144
						C1108.464,1042.381,1175.512,944.878,1126.319,868.987z"/>
				</g>
				<g>
					<path fill="#C75542" d="M400.299,380.751l362.72-72.234L625.527,96.404C574.964,18.4,454.866,43.661,440.012,135.425
						L400.299,380.751z"/>
				</g>
			</g>
			<g opacity="0.71">
				<g>
					<defs>
						<path id="SVGID_2_" d="M440.012,135.425l-145.116,896.463c-14.47,89.387,86.409,151.605,159.791,98.552l205.992-148.928
							c23.253-16.812,52.533-23.005,80.602-17.048l278.712,59.144c88.471,18.774,155.519-78.729,106.326-154.621L625.527,96.405
							C574.964,18.4,454.866,43.661,440.012,135.425z"/>
					</defs>
					<clipPath id="SVGID_3_">
						<use xlink:href="#SVGID_2_"  overflow="visible"/>
					</clipPath>
				</g>
			</g>
			<g opacity="0.71">
				<g>
					<defs>
						<path id="SVGID_4_" d="M138.828,432.822l874.053-174.065c89.746-17.873,155.512,82.726,103.137,157.764L762.519,922.983
							c-31.181,44.673-92.05,56.795-137.966,27.476L103.999,618.062C26.873,568.813,49.082,450.695,138.828,432.822z"/>
					</defs>
					<clipPath id="SVGID_5_">
						<use xlink:href="#SVGID_4_"  overflow="visible"/>
					</clipPath>
				</g>
			</g>
		</g>
	</g>
	<g>
		<g opacity="0.2">
			<path fill="#FFFFFF" d="M403.174,362.993l-73.957,456.874c-27.123,167.555,161.973,284.182,299.526,184.734l0,0
				c43.588-31.513,98.471-43.122,151.087-31.957l30.728,6.521c165.837,35.191,291.518-147.576,199.306-289.834L750.919,289.85
				C656.139,143.632,431.018,190.983,403.174,362.993z"/>
		</g>
		<g opacity="0.2">
			<path fill="#FFFFFF" d="M355.42,389.688l440.868-87.797c168.228-33.502,291.505,155.069,193.329,295.726L763.528,921.537
				c-31.745,45.481-93.715,57.822-140.462,27.972L290.134,736.917C145.562,644.602,187.193,423.19,355.42,389.688z"/>
		</g>
		<g>
			<path fill="#FFFFFF" d="M709.615,609.029c-9.617,1.638-18.744-4.83-20.383-14.45c-1.638-9.619,4.833-18.745,14.45-20.383
				l69.437-11.827l-8.234-48.342l-69.437,11.827c-9.617,1.638-18.744-4.83-20.383-14.45c-1.638-9.619,4.833-18.745,14.45-20.383
				l69.437-11.827l-8.234-48.342l-69.437,11.827c-9.617,1.638-18.744-4.83-20.383-14.45c-1.638-9.619,4.833-18.745,14.45-20.383
				l69.437-11.827l-3.402-19.971c-13.518-79.367-88.817-132.748-168.184-119.23l-0.001,0
				c-79.367,13.518-132.747,88.817-119.229,168.184l3.402,19.971l69.436-11.827c9.617-1.638,18.744,4.831,20.383,14.45
				c1.638,9.62-4.832,18.744-14.45,20.383l-69.436,11.827l8.234,48.342l69.436-11.827c9.617-1.638,18.744,4.831,20.383,14.45
				c1.639,9.62-4.832,18.744-14.45,20.383l-69.436,11.827l8.234,48.342l69.436-11.827c9.617-1.638,18.744,4.831,20.383,14.45
				c1.639,9.62-4.832,18.744-14.45,20.383l-69.436,11.827l3.402,19.971c13.518,79.367,88.817,132.748,168.184,119.23l0.001,0
				c79.367-13.518,132.747-88.817,119.229-168.184l-3.402-19.971L709.615,609.029z"/>
		</g>
		<g>
			<path fill="#FFFFFF" d="M644.603,891.074c-49.853,0-98.385-15.352-139.884-44.782c-52.903-37.505-88.037-93.364-98.924-157.289
				c-1.801-10.591,5.323-20.644,15.914-22.449c10.618-1.797,20.644,5.318,22.445,15.909c9.141,53.684,38.642,100.595,83.064,132.091
				s98.444,43.812,152.141,34.658c53.684-9.136,100.591-38.637,132.086-83.069c31.491-44.422,43.798-98.448,34.653-152.133
				c-1.806-10.591,5.318-20.644,15.909-22.449c10.555-1.797,20.644,5.318,22.449,15.909c10.888,63.934-3.764,128.273-41.269,181.176
				s-93.368,88.037-157.298,98.924C672.109,889.915,658.302,891.074,644.603,891.074z"/>
		</g>
	</g>
	<g>
		<path fill="#FFFFFF" d="M696.644,845.977l30.88,180.169c1.864,10.888-5.444,21.219-16.332,23.087
			c-1.141,0.198-2.282,0.287-3.4,0.287c-9.563,0-18.016-6.872-19.687-16.619l-30.88-180.169"/>
	</g>
</g>
</svg>
