<?xml version="1.0" encoding="utf-8"?>
<!-- Generator: Adobe Illustrator 23.0.3, SVG Export Plug-In . SVG Version: 6.00 Build 0)  -->
<svg version="1.1" id="Capa_1" xmlns="http://www.w3.org/2000/svg" xmlns:xlink="http://www.w3.org/1999/xlink" x="0px" y="0px"
	 viewBox="0 0 1200 1200" enable-background="new 0 0 1200 1200" xml:space="preserve">
<path d="M320.352,240.937c-1.181-20.582-2.521-43.91,12.404-58.967c3.891-3.925,7.507-5.853,12.086-8.294
	c5.457-2.908,12.247-6.528,22.711-15.227c3.245-2.699,9.283-7.721,15.531-14.424c10.073-10.806,13.805-18.549,17.099-25.38
	c2.454-5.088,4.77-9.894,9.292-15.041c8.116-9.24,15.511-10.752,26.705-13.039c9.606-1.963,22.76-4.651,42.259-13.712
	c11.423-5.308,17.355-9.225,22.121-12.372c5.688-3.756,9.797-6.47,19.357-9.167c10.236-2.886,41.391-11.669,63.026,2.651
	c18.794,12.441,25.338,38.299,30.596,59.076c3.589,14.188,6.69,26.44,12.438,26.553c0.696,0.051,1.175-0.14,2.243-0.477
	c1.469-0.464,3.686-1.164,8.224-1.978c8.959-1.606,15.902-1.655,18.184-1.67c8.335-0.065,15.94-1.067,23.99-2.128
	c10.062-1.325,21.463-2.827,36.316-2.827c0.059,0,0.116,0,0.174,0c22.507,0.017,43.619,3.536,81.947,9.925
	c37.749,6.29,63.497,27.713,73.196,36.151c-29.569,15.548-59.809,39.422-95.086,74.33c-4.535,4.488-9.237,8.899-14.036,13.171
	c-3.349-2.218-7.803-2.465-11.468-0.301l-1.036,0.612c-0.042,0.024-0.084,0.047-0.127,0.071l-2.023,1.187
	c-4.918,2.885-6.716,9.068-4.211,14.113c-99.953,77.35-218.209,82.173-300.669,72.279c-2.214-0.266-4.525-0.559-6.967-0.889
	l-0.9-7.083c-0.754-5.909-6.127-10.115-12.057-9.353l-5.497,0.688c-2.845,0.356-5.433,1.83-7.191,4.095
	c-1.61,2.075-2.404,4.659-2.248,7.265c-10.743-1.933-21.535-4.164-32.266-6.671c-2.853-17.068-10.153-33.66-16.476-41.847
	l-0.887-1.15c-1.834-2.376-4.575-3.881-7.565-4.156c-3.011-0.264-5.959,0.709-8.194,2.713l-1.085,0.973
	c-0.548,0.492-1.06,1.008-1.59,1.512c-0.608-1.308-1.147-2.606-1.809-4.289l-2.145-5.421
	C327.265,273.656,321.378,258.818,320.352,240.937z M975.208,405.855c8.849,31.015-4.729,57.899-13.714,75.689
	c-9.302,18.419-22.329,34.533-38.71,47.909c-2.319,4.458-4.196,9.156-5.569,13.973c-1.138,3.986-4.16,14.574-2.539,27.53
	c0.695,5.559,2.811,22.466,15.382,34.482c2.005,1.917,3.961,3.399,5.684,4.704c3.719,2.819,6.931,5.253,8.015,10.226
	c1.18,5.427-0.633,11.882-4.509,16.064c-2.084,2.249-4.797,3.388-9.29,5.279c-4.778,2.012-8.273,3.043-11.081,3.874
	c-4.013,1.187-6.224,1.841-8.4,4.293c-2.19,2.468-3.013,5.242-3.739,7.686c-1.155,3.898-1.365,8.113-0.666,12.239
	c3.247,1.668,5.419,3.813,6.367,6.422c3.417,9.416-9.364,22.379-20.031,27.526c-1.395,0.674-2.795,1.239-4.191,1.708
	c2.265,2.117,5.13,5.712,5.87,10.817c0.956,6.587-1.742,14.999-7.142,16.533c-0.574,0.161-1.142,0.24-1.711,0.24
	c-2.278,0-4.57-1.284-7.134-3.412c1.378,9.683,2.74,33.891-14.29,50.185c-6.551,6.268-14.892,10.547-24.789,12.726
	c-4.056,0.894-7.945,1.279-11.691,1.279c-10.317,0-19.538-2.932-28.1-6.294c-23.232-9.13-41.992-19.263-55.161-27.27
	c-4.35-2.356-8.791-4.862-13.295-7.561c-9.3,12.661-17.792,26.123-25.206,40.089c-8.858,16.691-19.296,36.388-26.41,57.636
	c1.436-0.528,2.994-1.071,4.661-1.614c14.748-5.36,29.275-7.166,43.339-5.32c1.341,0.118,2.694,0.263,4.061,0.441
	c33.737,4.38,61.34,32.914,100.818,87.875c14.294,18.661,25.781,35.789,34.549,49.779c4.721,6.94,9.589,14.119,14.664,21.605
	c13.238,20.825,26.484,45.874,37.307,75.234c3.088,8.377,5.776,16.557,8.12,24.495c4.3,14.765,3.532,15.908,3.176,16.05
	c-3.348,1.344-24.626-63.231-63.626-124.54c-55.867-87.823-136.399-150.555-159.472-137.358c-2.301,1.316-7.395,5.311-9.705,11.612
	c-3.005,8.197,0.063,16.982,10.588,35.342c18.165,31.687,38.424,52.777,42.302,56.682c8.379,8.443,15.614,14.772,20.897,19.392
	c7.402,6.474,9.391,8.211,8.143,9.991c-0.202,0.29-0.597,0.657-1.328,0.762c-3.626,0.562-18.167-6.83-29.923-16.167
	c-9.237-7.338-14.37-13.846-22.871-24.628c-5.342-6.777-11.991-15.207-21.893-26.73c-9.734-11.331-14.785-16.56-17.08-15.713
	c-4.769,1.759-3.721,20.358-0.798,34.372c4.01,19.225,12.293,33.625,18.49,42.582c2.654,3.891,6.297,9.696,9.802,17.133
	c9.72,20.622,18.061,53.095,8.659,58.931c-9.353,5.806-32.92-15.621-37.549-19.977c-5.908-5.564-10.143-10.764-14.238-15.79
	c-6.476-7.95-12.592-15.457-24.354-22.849c-4.289-2.695-12.272-7.71-14.529-5.875c-4,3.251,10.147,30.617,14.795,39.608
	c8.893,17.203,17.043,31.276,23.592,42.585c15.724,27.155,24.386,42.113,19.001,57.945c-1.634,4.802-6.079,13.714-11.381,13.717
	c-0.102,0-0.202-0.005-0.303-0.01c-5.404-0.348-7.845-9.506-10.934-21.1c-0.825-3.101-1.692-6.349-2.655-9.58
	c-4.653-15.581-9.01-21.936-14.525-29.984c-4.956-7.23-11.125-16.227-19.264-34.659c-5.267-11.929-8.619-21.567-11.312-29.309
	c-5.201-14.951-7.812-22.456-16.854-26.124c-3.305-1.34-6.526-1.793-9.936-2.273c-5.705-0.802-11.604-1.632-18.797-6.529
	c-8.099-5.511-12.223-12.496-14.438-16.248l-0.409-0.688c-9.439-15.824-36.5-47.704-71.352-55.092
	c-7.649-1.622-27.785-4.585-48.313,5.287c-14.422,6.936-21.898,16.971-36.85,37.042c-5.124,6.878-17.021,23.739-26.933,48.293
	c-4.04,10.008-6.06,15.012-7.739,22.599c-4.489,20.281-10.072,74.225-10.879,76.605c0.006,0.056,0.01,0.111,0.016,0.167
	c0.08,0.741-0.455,1.405-1.196,1.487c-0.05,0.005-0.099,0.008-0.148,0.008c-0.68,0-1.266-0.511-1.341-1.205
	c-0.004-0.034-0.006-0.068-0.01-0.102c-0.002-0.014-0.011-0.026-0.012-0.04c-3.688-33.881-0.121-65.956,10.599-95.339
	c5.801-15.898,11.932-26.677,40.995-72.084c17.556-27.431,35.682-55.351,53.875-82.98c0.032-0.049,0.093-0.06,0.131-0.104
	c4.962-6.525,9.342-13.512,12.997-20.809c1.564-3.122,2.961-6.352,4.276-9.611c-7.256,5.07-26.596,18.221-32.019,18.221
	c-0.572,0-0.989-0.148-1.22-0.467c-1.08-1.487,0.15-2.56,5.328-7.08c6.398-5.589,18.109-15.864,29.349-30.863
	c0.387-0.572,0.795-1.127,1.175-1.705c1.615-2.458,3.146-4.968,4.61-7.515c4.616-8.035,8.481-16.494,11.525-25.285
	c-7.03,5.529-14.781,9.956-23.059,13.327c-0.958,0.461-1.92,0.921-2.94,1.368c-9.712,4.251-29.824,10.331-32.304,5.121
	c-0.052-0.109-0.044-0.223-0.081-0.333c-0.005-0.016-0.023-0.022-0.028-0.039c-0.011-0.04-0.004-0.08-0.011-0.121
	c-0.721-2.717,3.16-5.756,11.247-12.004c11.44-8.834,30.514-23.579,47.156-46.866c0.109-0.198,0.219-0.396,0.327-0.595
	c4.728-8.664,8.649-18.577,11.228-29.937c-4.01,0.167-8.02,0.334-12.029,0.5c-2.451-0.267-5.165-0.39-8.111-0.502
	c-11.61-0.443-26.059-0.994-38.459-11.729c-3.192-2.763-5.532-5.572-7.795-8.29c-5.729-6.882-10.253-12.317-25.34-12.317
	c-9.087,0-19.058-7.51-29.355-21.892c-0.414,9.103-5.208,17.799-13.535,23.095c-2.157,1.372-7.117-0.089-3.769-2.219
	c9.797-6.231,13.59-18.247,10.28-28.879c-3.621,6.956-11.996,11.511-20.454,11.417c-2.849-0.032,2.537-2.423,3.802-2.409
	c10.146,0.113,14.357-12.478,11.632-20.728c-0.322-0.605-0.644-1.18-0.966-1.797c-1.196-2.289-25.26-48.681-37.442-97.768
	c9.966,2.828,21.441,1.132,31.261-4.817c4.162-2.523,8.939-6.888,11.66-14.31c32.498,4.092,64.464,5.746,95.158,4.965
	c14.772-0.388,29.53-1.337,43.954-2.829c2.468,2.141,5.503,3.626,8.876,4.301c5.988,1.205,12.575-0.235,18.042-3.942
	c1.983-1.337,3.752-2.922,5.258-4.696c8.599-1.419,16.892-2.998,24.726-4.709l5.366,23.484c1.329,5.814,7.112,9.437,12.926,8.127
	l4.032-0.918c2.753-0.628,5.15-2.305,6.677-4.675c2.344,1.485,5.258,2.07,8.164,1.403l4.029-0.915
	c2.795-0.635,5.224-2.355,6.75-4.781c1.527-2.429,2.025-5.363,1.387-8.159l-5.208-22.788c0.237-0.182,0.472-0.369,0.704-0.564
	c1.276-1.065,2.413-2.262,3.386-3.565c9.64-3.249,18.956-6.748,27.742-10.421c44.748-18.701,84.675-44.861,118.881-77.867
	c0.09,0.042,0.179,0.082,0.272,0.121c3.752,1.624,7.945,1.632,11.781,0.055c4.237-1.732,7.716-5.305,9.545-9.804
	c0.828-2.044,1.284-4.174,1.363-6.292c0.533-0.156,1.057-0.34,1.577-0.554c4.23-1.73,7.708-5.295,9.559-9.822
	c1.482-3.668,1.759-7.623,0.841-11.238c-0.042-0.29-0.092-0.577-0.158-0.865c2.015-2.523,3.871-4.91,5.659-7.275
	c20.997-27.793,39.78-49.056,57.932-65.484c0.382,0.316,0.781,0.62,1.2,0.904c3.452,2.349,7.671,3.177,11.874,2.323
	c3.304-0.667,6.394-2.36,8.878-4.789c3.075,1.551,6.608,2.025,10.178,1.313c4.636-0.947,8.857-3.908,11.565-8.106
	c2.138-3.293,3.198-7.046,3.093-10.732c0.854-0.999,1.54-2.173,1.993-3.489c1.208-3.502,1.706-7.634,1.155-11.718
	c1.06-0.503,2.132-0.965,3.199-1.446c12.696,39.757,6.625,75.327,1.364,94.144C932.768,353.747,965.094,370.408,975.208,405.855z
	 M760.251,505.563l52.137-0.528c1.072-4.186,2.058-8.391,2.938-12.612c4.302-20.649,6.322-41.81,6.012-62.942
	c-7.919,6.646-15.254,13.829-21.835,21.384c-10.376,11.912-18.546,24.203-26.448,36.088
	C768.681,493.533,764.507,499.797,760.251,505.563z M718.783,765.124c-14.003-9.411-29.868-21.495-46.162-36.881
	c-8.188-7.732-15.526-15.404-22.115-22.838c-0.035,0.741-0.045,1.481-0.093,2.222c-0.475,7.346-1.585,24.549-10.441,43.82
	c-3.621,7.881-7.085,12.972-10.237,17.262c-0.516,0.725-1.027,1.435-1.525,2.127c-3.686,5.108-6.913,9.612-9.278,16.594
	c-0.26,0.83-0.517,1.674-0.755,2.592c-3.953,15.215-0.893,28.396,0.414,34.024c0.587,2.526,0.744,3.204,0.293,3.897
	c-0.2,0.306-0.575,0.559-0.936,0.628c-0.353,0.071-0.897,0.032-1.45-0.504c-1.53-1.477-7.754-13.746-8.975-30.351
	c-0.544-5.716-0.377-11.283,0.566-16.664c0.127-0.726,0.277-1.415,0.425-2.107c1.539-8.21,4.213-13.787,6.82-19.162
	c1.726-3.557,3.402-7.018,4.761-11.172c1.355-4.384,2.411-9.42,2.838-15.713c0.324-4.773,0.076-9.068-0.509-12.871
	c-0.99-6.318-2.909-11.268-4.689-14.758c-2.293-4.498-5.08-8.359-6.418-9.387c-0.145,1.25,0.206,4.092,0.45,6.07l0.257,2.136
	c0.011,0.099,0.017,0.194,0.028,0.293c1.376,9.021,1.035,17.518-0.138,26.143c-1.027,9.152-2.817,16.737-4.044,21.908
	c-1.317,5.54-2.182,9.182-4.305,14.155c-1.524,3.57-2.902,5.962-4.361,8.496c-1.475,2.56-2.999,5.208-4.741,9.274
	c-0.02,0.047-2.079,4.889-3.945,11.473c-0.24,0.849-0.481,1.797-0.718,2.778c-0.254,1.07-0.48,2.148-0.702,3.226
	c-1.632,8.153-2.782,19.843-1.486,35.489c0.103,1.245,0.125,1.503-0.262,1.949c-0.249,0.287-0.609,0.456-0.989,0.464
	c-0.357,0.108-0.748-0.142-1.01-0.417c-0.041-0.042-0.097-0.161-0.158-0.31c-0.098-0.145-0.171-0.31-0.208-0.492
	c-0.018-0.086-0.031-0.17-0.048-0.256c-0.973-3.238-2.969-13.611-2.918-27.83c-0.018-4.116,0.133-8.197,0.496-12.224
	c0.117-1.296,0.231-2.593,0.388-3.879c0.141-1.156,0.301-2.26,0.465-3.353c1.259-9.095,3.102-15.265,5.043-21.734
	c2.226-7.418,4.743-15.842,6.802-30.277c0.019-0.241,0.048-0.462,0.066-0.707c0.897-12.227-0.25-24.649-3.411-36.937h-11.659
	c-4.626,6.031-9.271,12.498-13.856,19.416c-12.257,18.492-21.582,36.431-28.732,52.783c-8.255,19.278-15.368,41.077-33.094,71.743
	c-5.787,10.012-10.979,17.982-14.477,23.171c3.555,1.506,7.085,3.065,10.565,4.709c57.384,27.112,97.612,69.468,124.232,97.496
	c9.709,10.223,20.366,19.866,30.672,29.19c8.969,8.116,18.245,16.509,26.889,25.277l1.229,1.245
	c9.336,9.482,22.119,22.471,28.179,19.539c0.915-0.443,3.92-2.737,4.191-13.68c0.091-3.627-0.146-7.081-0.646-10.394
	c-2.204-14.383-9.368-26.088-16.342-37.478c-1.309-2.138-2.605-4.256-3.854-6.365c-3.044-5.152-18.52-32.062-24.217-56.136
	c-0.704-2.975-1.268-5.948-1.702-8.916c-3.068-20.761,0.221-41.267,6.348-60.533c0.01-0.03,0.016-0.059,0.028-0.089
	c6.268-19.677,15.489-38.058,23.93-54.089c1.224-2.325,2.432-4.602,3.612-6.824C707.934,782.39,713.192,773.633,718.783,765.124z
	 M911.997,571.292c-0.17-1.355-0.279-2.677-0.358-3.977c-0.04,5.171-0.158,11.382-0.565,19.357
	c-0.534,10.439-1.117,15.014-4.787,18.276c-2.811,2.5-6.957,3.747-11.277,3.747c-4.397,0-8.972-1.292-12.5-3.874
	c-6.816-4.984-6.649-12.341-6.202-31.998c0.157-6.901,0.352-15.489,0.284-26.043c-0.005-0.769-0.013-1.499-0.02-2.242
	c-3.174,1.074-7.199,2.01-11.814,2.01c-1.963,0-4.024-0.167-6.153-0.564c-7.193-1.342-12.497-4.793-15.348-6.646
	c-2.319-1.507-4.53-3.22-6.572-5.088c-0.365-0.335-0.518-0.841-0.399-1.322c0.12-0.48,0.492-0.857,0.97-0.981
	c2.841-0.74,5.68-1.628,8.438-2.643c1.158-0.426,2.306-0.905,3.454-1.382l-31.635,0.32c-4.322,6.875-9.862,13.101-16.52,18.543
	c-0.48,0.393-1.165,0.406-1.663,0.036c-0.497-0.37-0.676-1.032-0.436-1.605c2.439-5.801,4.674-11.696,6.729-17.654l-67.27,0.682
	c-2.023,1.406-4.12,2.693-6.319,3.836c-1.279,0.664-4.096,2.062-5.805,2.902c-2.757,1.356-5.354,2.591-7.87,3.771
	c-4.824,8.792-4.473,19.509,0.803,28.111c0.67,1.093-4.856,3.222-5.868,1.572c-5.044-8.222-5.463-17.965-1.795-26.528
	c-1.975,0.888-3.868,1.727-5.63,2.491c-2.915,5.048-3.632,10.293-0.545,16.194c1.371,2.62,2.766,4.869,3.029,7.938
	c0.596,6.956-3.699,12.925-7.809,18.069c-1.475,1.846-7.075,1.434-4.819-1.388c3.651-4.569,7.597-10.263,6.596-16.475
	c-0.6-3.724-3.435-6.441-4.584-9.935c-1.297-3.943-0.755-7.73,0.71-11.256c-2.237,0.927-4.163,1.707-5.747,2.348
	c-1.438,0.581-2.605,1.055-3.482,1.424c-15.547,6.567-31.188,19.41-39.844,32.718c-15.611,24.003-11.444,52.593-7.515,67.641
	c9.561,15.192,18.756,27.036,25.762,35.4c1.319,1.575,31.824,37.624,64.72,58.694c7.812,5.004,25.29,15.268,31.608,18.693
	c0.578,0.313,4.38,2.383,9.592,5.252c1.563,0.861,3.376,1.868,5.577,3.106c3.046,1.714,21.151,11.927,21.082,12.053
	c2.707,1.064,5.483,2.081,8.336,2.972c0.044,0.059,0.088,0.118,0.132,0.177c8.999,2.797,18.791,4.305,29.776,1.887
	c9.407-2.07,17.315-6.12,23.502-12.04c18.786-17.973,13.912-46.362,12.919-51.172c-1.332-1.301-2.75-2.759-4.284-4.336
	c-5.862-6.032-11.179-12.771-15.804-20.027l0,0c0-0.001-0.001-0.001-0.001-0.002c-0.131-0.206-0.178-0.433-0.188-0.661
	c-0.001-0.029-0.023-0.051-0.023-0.08c0-0.032,0.025-0.056,0.027-0.088c0.018-0.222,0.073-0.437,0.195-0.626
	c0.006-0.009,0.006-0.019,0.012-0.028c0.1-0.148,0.23-0.279,0.39-0.382c0.044-0.028,0.095-0.032,0.141-0.055
	c0.025-0.012,0.036-0.04,0.062-0.051c5.33-2.239,10.6-4.77,15.666-7.526c11.539-6.277,22.407-13.936,32.336-22.745
	c-0.733-4.48-0.5-9.055,0.758-13.293c0.767-2.584,1.721-5.796,4.309-8.715c2.688-3.03,5.46-3.85,9.655-5.089
	c2.744-0.81,6.158-1.819,10.799-3.773c4.624-1.946,6.737-2.879,8.356-4.625c3.304-3.565,4.852-9.052,3.85-13.654
	c-0.87-3.997-3.444-5.949-7.006-8.646c-1.781-1.35-3.801-2.882-5.92-4.907C914.927,594.712,912.722,577.084,911.997,571.292z
	 M857.969,535.289c0.162-2.727,1.556-5.406,3.822-7.349c0.067-0.057,0.148-0.093,0.216-0.149l-6.152,0.062
	c-3.002,1.489-6.102,2.834-9.228,3.984c-2.049,0.754-4.14,1.44-6.243,2.049c1.388,1.144,2.843,2.212,4.344,3.189
	c2.694,1.751,7.706,5.01,14.372,6.253c0.825,0.154,1.635,0.257,2.436,0.341C859.156,541.43,857.784,538.404,857.969,535.289z
	 M868.557,543.604c3.086-0.365,5.796-1.104,7.982-1.901c-0.031-2.297-0.068-4.469-0.107-6.513c-0.069-0.03-0.143-0.041-0.209-0.083
	c-1.891-1.235-4.148-1.599-6.207-1.009c-1.59,0.459-2.874,1.462-3.437,2.686C865.644,538.822,866.481,541.655,868.557,543.604z
	 M890.237,566.089c-0.045,12.388-0.105,29.356,0.399,34.203c0.087,0.839,0.303,2.086,1.18,3.249c0.858,1.134,2.196,1.94,3.97,2.392
	c3.381-0.132,6.565-1.098,8.708-3.004c2.749-2.442,3.354-6.054,3.883-16.393c0.558-10.93,0.574-18.566,0.585-24.701
	c0.004-2.107,0.008-4.078,0.032-5.999c0.05-3.976,0.187-7.83,0.318-11.523c0.505-14.193,0.94-26.45-4.388-33.123
	c-0.68-0.85-1.332-1.467-1.489-1.614c-1.51-1.413-3.333-2.507-5.271-3.336c-1.291,0.449-2.465,1.069-3.441,1.923
	c-1.739,1.52-2.951,3.756-3.599,6.644c-1.632,7.262-1.188,25.003-0.974,33.529c0.037,1.448,0.067,2.666,0.082,3.573
	C890.277,554.738,890.258,560.003,890.237,566.089z M921.47,407.131c-4.645-11.836-10.948-23.038-18.74-33.309
	c-16.95,2.361-39.945,9.205-54.888,28.282c-10.961,13.991-13.656,29.591-17.068,49.34c-2.422,14.015-2.727,24.798-2.995,34.314
	c-0.203,7.163-0.385,13.571-1.475,19.902l53.173-0.538c0.004,0,0.009,0,0.013,0c0.061,0,0.114,0.027,0.173,0.035
	c0.67-0.75,1.449-1.384,2.392-1.886c3.873-2.06,10.377-2.055,16.184,0.13c0.395-0.029,0.767,0.11,1.039,0.385
	c2.198,0.944,4.269,2.196,6.003,3.819c0.348,0.328,1.039,1.009,1.751,1.9c5.953,7.454,5.522,19.568,4.977,34.904
	c-0.131,3.672-0.266,7.506-0.316,11.461c-0.012,0.961-0.019,1.936-0.023,2.934c0.515-7.559,2.162-13.364,2.948-16.118
	c1.433-5.025,3.392-9.926,5.818-14.573c4.247-12.968,7.208-26.392,8.793-39.903C931.165,471.711,934.767,441.005,921.47,407.131z
	 M907.127,642.982c-0.543,0.509-0.571,1.363-0.061,1.906c0.266,0.285,0.625,0.427,0.985,0.427c0.331,0,0.663-0.121,0.924-0.367
	c0.724-0.678,2.021-1.698,4.086-2.695c2.672-1.284,5.093-1.785,6.298-1.97c0.737-0.111,1.245-0.802,1.131-1.537
	c-0.113-0.738-0.802-1.247-1.537-1.131c-1.355,0.206-4.074,0.767-7.064,2.207C909.516,640.968,907.989,642.173,907.127,642.982z
	 M879.245,625.384c-0.602,0.805-4.526,6.109-2.377,12.082c1.695,4.712,6.056,6.985,7.851,7.744c0.171,0.071,0.349,0.105,0.525,0.105
	c0.526,0,1.026-0.308,1.243-0.825c0.276-0.656-0.544-1.568-0.719-1.769c-2.586-2.97-4.242-4.87-4.888-6.178
	c-1.531-3.098,0.303-7.518,2.012-9.752c0.663-0.867,2.12-2.373,5.034-5.387c1.229-1.271,1.559-1.583,1.467-1.733
	C889.057,619.126,882.947,620.438,879.245,625.384z M889.477,476.778c-5.023-1.09-15.25-2.295-27.354,1.903
	c-10.491,3.638-19.149,10.286-20.274,13.088c-0.302,0.753-0.16,1.313,0.013,1.649c0.8,1.564,2.463,0.964,5.773-0.228
	c3.812-1.37,10.189-3.663,18.771-4.46h0.001c7.292-0.676,16.367-1.52,25.288,2.811c3.743,1.818,6.574,4.104,8.848,5.942
	c2.418,1.954,4.439,3.586,6.454,3.586c0.552,0,1.106-0.124,1.668-0.398c2.878-1.403,3.731-6.042,2.891-9.717
	C910.062,484.406,902.632,479.638,889.477,476.778z M902.927,251.202c4.307,3.713,3.685,10.039,2.595,13.195l-2.599-0.712
	c0.012-0.055,1.096-5.589-1.884-8.294c-0.861-0.781-2.088-0.968-3.769-0.974c-0.819,0.485-1.638,0.981-2.455,1.483l8.052,14.181
	l-0.154,0.092c0.533,1.877,0.138,4.139-1.127,6.089c-1.158,1.793-2.86,3.034-4.667,3.402c-1.332,0.265-2.626,0.03-3.657-0.671
	c-2.527-1.715-2.862-5.597-0.763-8.835c1.055-1.628,2.568-2.778,4.15-3.249l-5.092-8.969c-1.47,0.937-2.94,1.901-4.41,2.893
	c0.508,3.593-0.608,6.888-0.659,7.038l-2.599-0.711c0.005-0.025,0.39-1.983,0.078-4.144c-1.448,1.014-2.897,2.055-4.346,3.123
	l4.211,7.416l-0.154,0.092c0.533,1.877,0.138,4.139-1.127,6.089c-1.158,1.794-2.86,3.034-4.669,3.402
	c-1.321,0.265-2.624,0.032-3.656-0.671c-2.526-1.717-2.862-5.598-0.763-8.835c1.055-1.63,2.568-2.779,4.15-3.249l-1.094-1.928
	c-24.047,18.37-48.276,44.161-76.117,81.011c-3.027,4.007-6.311,8.145-10.286,12.956l2.705,3.195l-0.14,0.127
	c0.749,1.581,0.763,3.635-0.018,5.566c-0.744,1.821-2.067,3.231-3.632,3.871c-1.144,0.472-2.355,0.477-3.404,0.028
	c-1.61-0.699-2.591-2.307-2.77-4.216c-2.112,2.429-4.168,4.731-6.195,6.94l3.673,4.342l-0.14,0.125
	c0.746,1.581,0.761,3.631-0.021,5.559c-0.741,1.821-2.063,3.231-3.63,3.872c-1.147,0.472-2.356,0.48-3.406,0.026
	c-2.566-1.114-3.532-4.547-2.206-7.817c0.008-0.018,0.016-0.037,0.024-0.057c-35.347,36.775-77.513,65.549-125.42,85.569
	c-9.754,4.077-20.142,7.92-30.884,11.431c-0.562,1.586-1.609,3.067-3.005,4.232c-1.925,1.612-4.249,2.385-6.371,2.241l7.271,31.806
	l-4.03,0.916l-7.961-34.84c-1.876,0.541-3.76,1.067-5.65,1.585c-0.577,0.945-1.295,1.777-2.136,2.48
	c-1.925,1.614-4.251,2.401-6.372,2.24l7.273,31.807l-4.03,0.916l-7.78-34.047c-3.031,0.74-6.074,1.456-9.134,2.135
	c-9.403,2.086-19.506,3.976-30.042,5.622c-1.047,2.204-2.784,4.194-4.96,5.66c-3.101,2.106-6.707,2.952-9.865,2.313
	c-2.305-0.461-4.14-1.653-5.311-3.446c-0.327-0.497-0.588-1.049-0.787-1.668c-16.082,1.847-32.613,3.001-49.154,3.432
	c-33.269,0.862-68.079-1.224-103.502-6.211c-0.315,8.082-3.213,13.836-8.629,17.115c-7.858,4.764-16.991,5.95-24.427,3.172
	c-4.796-1.789-8.282-5.098-9.564-9.079c-2.506-7.787-0.286-14.164,3.478-17.874c-12.484-2.504-24.631-5.295-36.181-8.314
	c4.576,22.084,7.486,36.708,8.037,39.486c0.208,1.052-0.419,2.015-1.383,2.226c-0.129,0.029-0.26,0.044-0.388,0.044
	c-0.819,0-1.576-0.567-1.78-1.4c-0.04-0.16-4.057-16.476-10.046-41.838c-22.18-6.037-41.825-12.824-53.989-18.658
	c-0.775-0.37-1.187-1.218-0.998-2.062c0.185-0.841,1.013-1.424,1.812-1.432l1.549,0.033l0.457,0.171
	c11.207,5.375,29.363,11.629,50.064,17.258c-2.415-10.268-5.117-21.86-7.995-34.395c-21.29-6.654-40.831-14.203-52.385-20.242
	c-0.738-0.386-1.126-1.225-0.943-2.038c0.187-0.836,0.914-1.423,1.767-1.428l1.336-0.009l0.518,0.208
	c10.849,5.671,28.474,12.454,48.611,18.724c-2.584-11.298-5.295-23.294-8.057-35.719c-20.158-7.17-38.666-15.122-49.619-21.326
	c-0.77-0.438-1.121-1.362-0.835-2.2c0.293-0.858,1.146-1.372,2.045-1.208l1.608,0.398c10.206,5.78,26.787,12.873,45.747,19.585
	c-2.543-11.486-4.965-22.614-7.237-33.159c-19.241-7.622-36.219-15.633-46.658-22.021c-0.668-0.407-1.005-1.197-0.837-1.963
	c0.163-0.771,0.806-1.349,1.594-1.431l1.147-0.113c0.393-0.047,0.791,0.05,1.129,0.26c9.501,5.81,24.901,13.095,42.521,20.123
	c-3.184-14.852-6.041-28.436-8.464-40.102c-17.762-8.054-33.47-16.375-43.171-22.872c-0.741-0.498-1.019-1.452-0.663-2.27
	c0.364-0.833,1.299-1.27,2.168-1.024l2.05,0.664c8.649,5.793,22.606,13.199,38.575,20.481c-4.48-21.654-7.254-35.629-7.543-37.082
	c-0.215-1.11,0.396-2.05,1.366-2.269c0.99-0.212,1.937,0.382,2.175,1.355c0.038,0.154,3.859,15.655,9.75,40.574
	c21.77,9.603,46.383,18.677,71.321,26.294c2.814-13.654,9.315-25.125,19.339-34.118l1.082-0.97l0.887,1.15
	c5.503,7.125,13.762,25.357,15.242,44.009c18.125,4.454,36.471,8.14,54.574,10.964l-1.743-13.697l5.497-0.69l1.941,15.262
	c5.643,0.829,10.675,1.508,15.353,2.07c86.599,10.387,211.583,4.845,315.897-80.286l-4.264-7.512l2.023-1.187l0.634,1.082
	l0.002-0.001l0.005-0.003l-0.637-1.08l1.184-0.699l0.999,1.524c0.609,0.589,2.187,1.843,5.627,3.225
	c7.218-6.132,14.275-12.603,20.984-19.241c57.219-56.62,99.891-83.179,149.074-92.189c-0.831-0.204-1.577-0.594-2.082-1.241
	c-1.461-1.859-0.839-4.752,1.421-6.582c0.966-0.781,2.098-1.229,3.191-1.316l-3.74-17.547l3.415-0.742l4.764,22.358l-0.193,0.057
	c-0.12,1.4-0.901,2.816-2.174,3.846c-0.224,0.182-0.462,0.337-0.702,0.484c1.486-0.243,2.977-0.475,4.477-0.687
	c0.257-0.306,0.541-0.584,0.848-0.833c0.966-0.782,2.1-1.23,3.193-1.317l-3.74-17.548l3.415-0.742l4.149,19.48
	c12.097-1.273,24.543-1.571,37.028-1.328l0.573,5.018c-12.799-0.263-25.547,0.049-37.899,1.406
	c-0.369,0.634-0.862,1.208-1.454,1.686c-1.225,0.995-2.719,1.482-4.104,1.321c-1.055-0.12-1.971-0.616-2.579-1.395
	c-0.127-0.162-0.239-0.334-0.335-0.516c-51.043,7.668-94.082,33.533-153.072,91.903c-5.9,5.839-12.269,11.716-18.958,17.493
	c2.724,0.903,4.7,2.501,5.878,4.756c1.507,2.879,1.326,6.162,0.957,8.282c4.204-4.116,8.305-8.322,12.252-12.565
	c11.51-12.377,22.197-23.135,32.638-32.849l-1.098-1.461l16.992-13.267l0.283,0.376c51.15-43.098,92.68-55.959,151.421-57.09
	l0.57,4.997c-57.858,1.091-98.701,13.724-148.975,56.095l5.479,7.27c27.004-23.095,52.74-37.836,80.777-46.265l-0.769-2.829
	l18.362-5.052l0.886,3.249c14.511-2.931,29.741-4.423,45.076-5.139l0.569,4.985c-15.092,0.698-30.068,2.157-44.319,5.023
	l2.877,10.538l-0.207,0.069c-0.004,0.087-0.009,0.173-0.018,0.26c13.851-3.015,28.298-4.798,42.807-5.906l0.567,4.968
	c-21.001,1.593-39.978,4.495-57.987,9.912c-0.332,0.736-0.817,1.405-1.429,1.964c-1.161,1.06-2.601,1.616-3.994,1.545
	c-0.923-0.051-1.756-0.397-2.384-0.98c-12.899,4.487-25.22,10.409-37.317,17.857c0.31,0.558,0.62,1.115,0.931,1.673
	c0.852,0.825,3.275,2.665,9.221,4.472c28.302-16.16,57.634-23.512,93.986-27.442l0.567,4.967
	C957.535,229.797,929.671,236.599,902.927,251.202z M929.122,205.833l2.993,10.981c1.842-0.541,3.66-1.049,5.437-1.52
	c-0.331-1.614,0.335-3.508,1.87-4.905c0.904-0.824,1.991-1.334,3.06-1.486l-1.636-6.003
	C936.891,203.767,932.958,204.751,929.122,205.833z M840.897,262.195c-1.118-0.56-1.867-1.641-2.162-2.945
	c-1.802,1.631-3.615,3.297-5.442,5.017c0.908,1.33,1.815,2.66,2.723,3.99c0.518,1.442,0.403,3.22-0.368,4.853
	c-0.765,1.608-2.036,2.816-3.49,3.316c-1.077,0.369-2.194,0.315-3.137-0.16c-1.934-0.973-2.746-3.387-2.125-5.859
	c-10.798,10.578-21.973,22.537-34,36.382c-16.962,19.525-35.864,37.259-56.201,52.73c4.812,6.338,1.775,15.365,1.635,15.77
	l-2.599-0.713c0.016-0.08,1.572-7.98-2.753-11.908c-0.074-0.067-0.152-0.131-0.235-0.19c-2.344,1.734-4.708,3.437-7.092,5.113
	l8.663,15.258c21.269-16.744,40.828-36.054,58.159-57.422c27.178-33.515,50.683-57.348,73.871-74.894l-1.485-2.617l2.024-1.184
	c0.001,0,0.002-0.001,0.003-0.001l1.184-0.699l0.998,1.523c0.125,0.12,0.322,0.295,0.603,0.516
	c17.569-12.846,35.364-22.241,54.356-28.698c0.33-0.651,0.744-1.2,1.253-1.667c0.906-0.827,1.993-1.338,3.065-1.489l-2.566-9.396
	c-27.413,8.277-52.604,22.739-79.084,45.398c0.382,0.609,0.763,1.219,1.144,1.829c0.579,1.469,0.483,3.309-0.315,4.997
	c-0.765,1.607-2.037,2.814-3.491,3.313C842.954,262.725,841.841,262.668,840.897,262.195z M725.914,361.229
	c-0.104,0.003-0.21,0.004-0.315,0.007c-1.184,0.024-2.388,0.049-3.576-0.037l1.127,1.986
	C724.073,362.537,724.995,361.887,725.914,361.229z M825.027,253.298l5.24,6.953c3.486-3.274,7.069-6.52,10.682-9.671l-4.608-6.116
	L825.027,253.298z M770.936,306.624c-0.029,1.446-0.483,2.906-1.304,4.173c-1.707,2.647-4.534,3.961-6.924,3.333
	c-14.62,12.876-30.316,24.631-46.687,34.969c2.109,1.488,6.029,3.569,13.067,5.533c1.359,0.378,2.608,0.889,3.726,1.521
	c20.346-15.324,39.303-33.041,56.353-52.67c13.671-15.737,26.265-29.075,38.467-40.741l-5.609-7.44
	c-10.239,9.539-20.732,20.107-32.042,32.266C784.053,293.944,777.648,300.353,770.936,306.624z M694.59,381.231l-0.154,0.069
	c0.005,0.029,0.009,0.058,0.014,0.087c8.538-4.866,16.993-10.157,25.176-15.758l-7.882-13.884
	c-7.553,4.621-15.567,9.109-23.852,13.364L694.59,381.231z M683.12,380.047c1.473-1.751,3.433-2.843,5.35-3.077l-4.169-10.037
	c-18.662,9.331-38.331,17.188-58.504,23.372l4.649,19.9c17.708-6.095,34.878-13.427,51.081-21.808
	C680.35,386.009,680.91,382.664,683.12,380.047z M762.03,288.97l7.109,12.52c1.028-0.97,2.052-1.947,3.069-2.93l-1.238-0.341
	c0.012-0.055,1.096-5.589-1.884-8.293c-1.159-1.053-2.989-1.014-5.106-0.966C763.338,288.975,762.682,288.99,762.03,288.97z
	 M425.608,369.843l3.942,30.99c7.122,0.787,13.18,1.367,18.983,1.818c5.58,0.434,11.242,0.787,16.852,1.052l-0.165-28.084
	l5.398,0.021l0.166,28.288c42.327,1.581,83.015-1.821,120.976-10.126l-0.688-2.947l0.153-0.037c-0.083-2.53,1.218-5.239,3.541-7.208
	c2.044-1.722,4.528-2.584,6.826-2.369c1.67,0.157,3.127,0.901,4.1,2.095c1.511,1.864,1.639,4.531,0.543,7.026
	c4.816-1.237,9.623-2.563,14.345-3.959l-1.986-8.507l0.157-0.034c-0.07-2.52,1.229-5.214,3.541-7.172
	c2.041-1.722,4.539-2.584,6.823-2.372c1.672,0.157,3.127,0.902,4.099,2.096c2.394,2.953,1.391,7.698-2.284,10.805
	c-2.021,1.713-4.491,2.543-6.707,2.355l0.377,1.612c20.052-6.165,39.458-13.899,57.726-23.007l-5.342-12.863l3.698-1.565
	l5.237,12.609c26.396-13.53,51.081-30.321,73.413-49.94c-0.388-1.818,0.044-3.93,1.21-5.731c1.055-1.628,2.568-2.778,4.152-3.247
	l-5.996-10.562c-41.697,33.933-89.698,57.995-142.702,71.533c-4.057,1.038-8.24,2.036-12.434,2.968
	c-50.491,11.203-105.607,13.339-163.818,6.357C435.41,371.22,430.878,370.613,425.608,369.843z M379.495,460.418
	c28.472,4.067,56.703,6.252,83.934,6.493c24.255,0.22,48.33-1.173,71.606-4.129l-3.33-26.187
	c-19.678,1.921-39.964,2.719-60.715,2.388l0.047,8.169l-0.132-0.003c-0.535,4.4-3.871,8.774-8.679,11.209
	c-3.995,2.025-8.388,2.487-12.051,1.268c-2.647-0.881-4.638-2.545-5.758-4.81c-2.703-5.486,0.717-12.799,7.63-16.416
	c-8.644-0.427-17.39-1.065-26.611-1.943c-0.216,0.17-0.435,0.338-0.668,0.496c-3.895,2.642-8.405,3.709-12.371,2.908
	c-2.853-0.572-5.125-2.045-6.57-4.257c-0.294-0.448-0.55-0.928-0.765-1.433c-11.128-1.433-22.374-3.18-33.515-5.207
	C378.917,436.488,383.553,448.675,379.495,460.418z M432.513,424.123l-0.133,0.007c0.013,2.597-0.861,5.29-2.508,7.748
	c8.786,0.759,17.41,1.325,25.669,1.682c3.293,0.142,6.637,0.254,10.02,0.339l-0.146-25.187c-5.789-0.276-11.582-0.638-17.24-1.077
	c-5.45-0.423-11.201-0.972-17.977-1.717L432.513,424.123z M597.857,419.925l-1.376-5.883l0.008,0.001l-3.539-15.153
	c-38.12,8.303-79.191,11.692-122.136,10.044l0.146,25.079C515.592,434.71,558.284,429.97,597.857,419.925z M600.74,413.816
	l24.878-5.821l-3.845-16.48c-8.025,2.363-16.33,4.526-24.731,6.445L600.74,413.816z M424.534,405.277
	c-23.792-2.825-48.127-7.16-72.36-12.89l-2.487,2.556c-2.276,2.339-4.525,4.651-6.727,6.934c2.065,6.212,3.992,12.148,5.796,17.79
	c2.852,0.612,5.725,1.212,8.64,1.796c0.986,0.125,1.939,0.311,2.823,0.552c14.658,2.872,29.521,5.276,44.117,7.134
	c0.398-4.357,3.241-8.841,7.57-11.772c4.464-3.006,9.718-3.868,13.855-2.448L424.534,405.277z M327.146,419.345
	c-9.646,11.779-13.993,20.827-13.592,28.317c5.734,1.408,11.65,2.775,17.629,4.074c-1.474-4.906-1.185-9.174-0.617-12.041
	c1.036-5.218,5.726-11.149,11.569-14.743l-0.721-2.177C336.623,421.677,331.831,420.525,327.146,419.345z M339.714,417.679
	c-0.92-2.744-1.723-5.126-2.369-7.038l-0.705-2.094c-2.302,2.48-4.363,4.771-6.238,6.934
	C333.464,416.227,336.565,416.96,339.714,417.679z M340.431,453.675c3.779,0.766,7.613,1.514,11.511,2.236
	c-1.568-5.246-3.237-10.649-4.977-16.109c-0.736,0.363-1.404,0.794-1.995,1.291l-0.003,0.001
	C341.868,443.683,340.137,448.544,340.431,453.675z M314.491,452.49c6.037,16.979,16.935,25.621,29.935,23.736
	c3.783-0.556,8.242-2.121,12.112-4.233c-0.958-3.572-2.021-7.304-3.121-11.074c-4.166-0.777-8.197-1.568-12.095-2.367
	c0.998,3.208,2.773,6.144,5.201,8.584l-1.731,2.058c-5.122-3.585-8.976-7.73-11.462-12.329c-6.445-1.4-12.695-2.85-18.59-4.313
	L314.491,452.49z M360.325,457.393c2.688,0.461,5.4,0.91,8.139,1.347c0.538-2.04,0.633-4.146,0.282-6.281
	c-1.437-8.707-7.966-13.107-14.06-13.845C356.888,445.788,358.766,452.089,360.325,457.393z M355.742,388.328
	c22.767,5.195,45.669,9.182,68.146,11.862l-3.972-31.222c-18.181-2.828-36.674-6.568-55.008-11.125
	C365.051,370.081,361.973,380.319,355.742,388.328z M337.056,345.475c5.884,1.707,12.131,3.423,18.607,5.106
	c1.256-9.184-0.887-18.55-6.532-28.53C343.458,329.446,339.494,337.136,337.056,345.475z M337.073,383.806l0.589,0.149
	c6.946-8.148,14.229-17.846,17.079-28.737c-6.444-1.709-12.764-3.479-18.829-5.276C333.541,360.784,333.93,372.166,337.073,383.806z
	 M267.326,361.691c18.997,7.278,40.211,14.148,61.534,19.931c-2.485-12.414-2.997-23.932-1.523-34.287
	c-23.976-7.449-47.861-16.322-69.323-25.75C260.788,333.363,263.95,346.934,267.326,361.691z M275.908,399.775
	c11.783,3.992,24.308,7.791,37.256,11.295c4.041-4.641,8.174-9.113,12.178-13.445c1.966-2.127,3.908-4.228,5.804-6.311
	c-0.394-1.456-0.784-2.98-1.162-4.56c-21.439-5.829-42.106-12.52-61.483-19.904c2.342,10.272,4.774,21.065,7.243,32.194
	L275.908,399.775z M284.643,439.838c5.002,1.489,10.202,2.959,15.493,4.381c-0.563-7.717,0.546-18.096,7.893-27.11
	c0.645-0.79,1.301-1.561,1.961-2.33c-0.897-0.25-1.784-0.498-2.643-0.745c-10.346-2.951-20.556-6.141-30.383-9.494
	C279.677,416.834,282.251,428.688,284.643,439.838z M345.04,489.732c5.617,0.972,10.888,1.822,16.047,2.589
	c-0.465-3.104-1.224-6.882-2.26-11.275c-23.092,10.457-44.68-3.578-51.271-13.708c-3.21-4.944-5.754-11.784-6.881-18.454
	c-5.222-1.421-10.259-2.856-15.01-4.276c2.647,12.393,5.052,23.831,7.15,33.91c13.692,3.568,28.254,6.8,43.305,9.613
	C338.987,487.566,342.212,488.142,345.04,489.732z M361.6,497.076c-3.719-0.567-7.377-1.16-10.989-1.773
	c0.423,0.784,0.774,1.614,1.051,2.484c1.144,3.605,0.349,8.197-2.024,11.698c-1.11,1.639-2.487,2.91-4.038,3.76
	c1.647,0.137,3.694-0.088,5.821-0.82c2.633-0.903,8.888-3.907,10.118-12.275C361.647,499.391,361.668,498.358,361.6,497.076z
	 M366.507,463.225c-1.586-0.262-3.156-0.529-4.711-0.798c0.512,1.761,0.976,3.366,1.388,4.798
	C364.515,465.957,365.626,464.618,366.507,463.225z M537.977,485.905l-2.297-18.051c-23.318,2.911-47.643,4.259-72.274,4.056
	c-27.741-0.248-56.652-2.591-85.941-6.963c-2.538,4.551-6.4,8.612-11.494,12.082c1.189,4.423,2.643,10.515,3.057,16.411
	c35.178,4.804,69.967,6.799,103.427,5.929c16.458-0.428,32.981-1.606,49.128-3.502c0.746-3.005,2.849-5.891,5.784-7.878
	C530.766,485.7,534.741,484.972,537.977,485.905z M539.905,462.14c68.83-9.439,129.557-32.619,180.554-68.925
	c-1.512-2.584-1.243-6.343,0.831-9.544c1.529-2.36,3.78-3.953,6.067-4.423l-5.229-9.209c-9.797,6.717-20.036,13.027-30.461,18.767
	c-1.209,1.176-2.661,1.979-4.127,2.286c-17.701,9.452-36.5,17.609-55.9,24.258l0.349,1.502l-20.645,4.831
	c-8.244,2.353-16.486,4.448-24.429,6.212c-16.23,3.601-33.035,6.336-50.323,8.199L539.905,462.14z M770.836,376.812l-9.179-10.844
	c-8.778,8.268-18.084,16.202-27.685,23.603c-0.277,0.691-0.617,1.347-1.014,1.958c-1.906,2.952-4.886,4.699-7.731,4.574
	c-26.672,19.318-56.2,35.151-87.77,47.067c-18.371,6.932-37.815,12.694-57.792,17.129c-12.507,2.774-25.661,5.098-39.117,6.911
	l3.251,25.555c12.694-2.065,25.228-4.613,37.301-7.585c0.245-2.16,1.481-4.364,3.391-5.962c1.963-1.645,4.347-2.464,6.562-2.249
	c1.614,0.157,3.018,0.882,3.954,2.041c0.516,0.641,0.873,1.384,1.063,2.202c1.361-0.389,2.723-0.788,4.084-1.191
	c0.454-1.855,1.591-3.636,3.213-4.993c1.966-1.644,4.352-2.462,6.564-2.248c1.612,0.157,3.017,0.882,3.951,2.041
	c0.19,0.236,0.359,0.489,0.504,0.762C675.927,455.168,728.551,421.947,770.836,376.812z M784.426,361.463l-5.108-6.038
	l-12.451,10.94l6.512,7.693C777.128,369.971,780.837,365.744,784.426,361.463z M874.011,264.04l-5.163-9.097
	c-22.731,17.264-45.82,40.715-72.538,73.658c-5.458,6.731-11.394,13.527-17.683,20.251l8.219,9.709
	c3.672-4.459,6.749-8.344,9.613-12.134C824.789,308.928,849.463,282.711,874.011,264.04z M881.57,258.542
	c-1.168-0.716-2.873-0.676-4.666-0.633c-0.643,0.016-1.296,0.03-1.949,0.013l2.162,3.808
	C878.602,260.638,880.086,259.577,881.57,258.542z M889.061,253.545l-5.164-9.096c-3.119,1.999-6.229,4.07-9.327,6.284
	c1.475,0.603,3.135,1.163,4.96,1.672c2.469,0.688,4.379,1.912,5.694,3.643C886.503,255.194,887.782,254.36,889.061,253.545z"/>
</svg>
