<svg xmlns="http://www.w3.org/2000/svg" viewBox="0 0 1200 1200"><path fill="#60197C" d="M400.299 380.751l-261.472 52.071c-89.746 17.873-111.955 135.991-34.829 185.239l233.727 149.245 62.574-386.555z"/><path fill="#E3AF31" d="M1012.881 258.757l-249.862 49.759 206.273 318.221 146.726-210.216c52.374-75.037-13.391-175.636-103.137-157.764z"/><linearGradient id="a" gradientUnits="userSpaceOnUse" x1="337.725" y1="637.475" x2="969.292" y2="637.475"><stop offset="0" stop-color="#be3475"/><stop offset="1" stop-color="#c75542"/></linearGradient><path fill="url(#a)" d="M337.725 767.306l286.828 183.152c45.916 29.319 106.786 17.197 137.966-27.475l206.773-296.245-206.273-318.222-362.72 72.234-62.574 386.556z"/><path fill="#D0783E" d="M624.553 950.458L337.725 767.306l-42.829 264.582c-14.47 89.387 86.41 151.605 159.791 98.552l205.991-148.928c10.638-7.692 22.567-13.042 35.036-16.141.018-.136.045-.272.065-.408-23.913 3.959-49.271-.485-71.226-14.505z"/><path fill="#BE3475" d="M1126.319 868.987L969.292 626.738 762.519 922.982c-14.753 21.137-36.178 34.881-59.495 40.502l.069.346c12.536-2.144 25.475-2.064 38.188.633l278.712 59.144c88.471 18.774 155.519-78.729 106.326-154.62z"/><path fill="#C75542" d="M400.299 380.751l362.72-72.234L625.527 96.404C574.964 18.4 454.866 43.661 440.012 135.425l-39.713 245.326z"/><g fill="#FFF"><path d="M403.174 362.993l-73.957 456.874c-27.123 167.555 161.973 284.182 299.526 184.734a190.414 190.414 0 01151.087-31.957l30.728 6.521c165.837 35.191 291.518-147.576 199.306-289.834L750.919 289.85c-94.78-146.218-319.901-98.867-347.745 73.143z" opacity=".2"/><path d="M355.42 389.688l440.868-87.797c168.228-33.502 291.505 155.069 193.329 295.726l-226.089 323.92c-31.745 45.481-93.715 57.822-140.462 27.972L290.134 736.917C145.562 644.602 187.193 423.19 355.42 389.688z" opacity=".2"/><path d="M709.615 609.029c-9.617 1.638-18.744-4.83-20.383-14.45-1.638-9.619 4.833-18.745 14.45-20.383l69.437-11.827-8.234-48.342-69.437 11.827c-9.617 1.638-18.744-4.83-20.383-14.45-1.638-9.619 4.833-18.745 14.45-20.383l69.437-11.827-8.234-48.342-69.437 11.827c-9.617 1.638-18.744-4.83-20.383-14.45-1.638-9.619 4.833-18.745 14.45-20.383l69.437-11.827-3.402-19.971c-13.518-79.367-88.817-132.748-168.184-119.23h-.001c-79.367 13.518-132.747 88.817-119.229 168.184l3.402 19.971 69.436-11.827c9.617-1.638 18.744 4.831 20.383 14.45 1.638 9.62-4.832 18.744-14.45 20.383l-69.436 11.827 8.234 48.342 69.436-11.827c9.617-1.638 18.744 4.831 20.383 14.45 1.639 9.62-4.832 18.744-14.45 20.383l-69.436 11.827 8.234 48.342 69.436-11.827c9.617-1.638 18.744 4.831 20.383 14.45 1.639 9.62-4.832 18.744-14.45 20.383l-69.436 11.827 3.402 19.971c13.518 79.367 88.817 132.748 168.184 119.23h.001c79.367-13.518 132.747-88.817 119.229-168.184l-3.402-19.971-69.437 11.827z"/><path d="M644.603 891.074c-49.853 0-98.385-15.352-139.884-44.782-52.903-37.505-88.037-93.364-98.924-157.289-1.801-10.591 5.323-20.644 15.914-22.449 10.618-1.797 20.644 5.318 22.445 15.909 9.141 53.684 38.642 100.595 83.064 132.091s98.444 43.812 152.141 34.658c53.684-9.136 100.591-38.637 132.086-83.069 31.491-44.422 43.798-98.448 34.653-152.133-1.806-10.591 5.318-20.644 15.909-22.449 10.555-1.797 20.644 5.318 22.449 15.909 10.888 63.934-3.764 128.273-41.269 181.176s-93.368 88.037-157.298 98.924a246.067 246.067 0 01-41.286 3.504z"/></g><path fill="#FFF" d="M696.644 845.977l30.88 180.169c1.864 10.888-5.444 21.219-16.332 23.087a19.9 19.9 0 01-3.4.287c-9.563 0-18.016-6.872-19.687-16.619l-30.88-180.169"/></svg>