<svg xmlns="http://www.w3.org/2000/svg" viewBox="0 0 1200 1200"><path d="M320.352 240.937c-1.181-20.582-2.521-43.91 12.404-58.967 3.891-3.925 7.507-5.853 12.086-8.294 5.457-2.908 12.247-6.528 22.711-15.227 3.245-2.699 9.283-7.721 15.531-14.424 10.073-10.806 13.805-18.549 17.099-25.38 2.454-5.088 4.77-9.894 9.292-15.041 8.116-9.24 15.511-10.752 26.705-13.039 9.606-1.963 22.76-4.651 42.259-13.712 11.423-5.308 17.355-9.225 22.121-12.372 5.688-3.756 9.797-6.47 19.357-9.167 10.236-2.886 41.391-11.669 63.026 2.651 18.794 12.441 25.338 38.299 30.596 59.076 3.589 14.188 6.69 26.44 12.438 26.553.696.051 1.175-.14 2.243-.477 1.469-.464 3.686-1.164 8.224-1.978 8.959-1.606 15.902-1.655 18.184-1.67 8.335-.065 15.94-1.067 23.99-2.128 10.062-1.325 21.463-2.827 36.316-2.827h.174c22.507.017 43.619 3.536 81.947 9.925 37.749 6.29 63.497 27.713 73.196 36.151-29.569 15.548-59.809 39.422-95.086 74.33a365.257 365.257 0 01-14.036 13.171c-3.349-2.218-7.803-2.465-11.468-.301l-1.036.612-.127.071-2.023 1.187c-4.918 2.885-6.716 9.068-4.211 14.113-99.953 77.35-218.209 82.173-300.669 72.279a474.586 474.586 0 01-6.967-.889l-.9-7.083c-.754-5.909-6.127-10.115-12.057-9.353l-5.497.688a10.803 10.803 0 00-9.439 11.36 641.093 641.093 0 01-32.266-6.671c-2.853-17.068-10.153-33.66-16.476-41.847l-.887-1.15a10.806 10.806 0 00-7.565-4.156 10.81 10.81 0 00-8.194 2.713l-1.085.973c-.548.492-1.06 1.008-1.59 1.512-.608-1.308-1.147-2.606-1.809-4.289l-2.145-5.421c-7.453-18.783-13.34-33.621-14.366-51.502zm654.856 164.918c8.849 31.015-4.729 57.899-13.714 75.689-9.302 18.419-22.329 34.533-38.71 47.909a74.738 74.738 0 00-5.569 13.973c-1.138 3.986-4.16 14.574-2.539 27.53.695 5.559 2.811 22.466 15.382 34.482 2.005 1.917 3.961 3.399 5.684 4.704 3.719 2.819 6.931 5.253 8.015 10.226 1.18 5.427-.633 11.882-4.509 16.064-2.084 2.249-4.797 3.388-9.29 5.279-4.778 2.012-8.273 3.043-11.081 3.874-4.013 1.187-6.224 1.841-8.4 4.293-2.19 2.468-3.013 5.242-3.739 7.686-1.155 3.898-1.365 8.113-.666 12.239 3.247 1.668 5.419 3.813 6.367 6.422 3.417 9.416-9.364 22.379-20.031 27.526a35.922 35.922 0 01-4.191 1.708c2.265 2.117 5.13 5.712 5.87 10.817.956 6.587-1.742 14.999-7.142 16.533a6.297 6.297 0 01-1.711.24c-2.278 0-4.57-1.284-7.134-3.412 1.378 9.683 2.74 33.891-14.29 50.185-6.551 6.268-14.892 10.547-24.789 12.726a54.05 54.05 0 01-11.691 1.279c-10.317 0-19.538-2.932-28.1-6.294-23.232-9.13-41.992-19.263-55.161-27.27a351.164 351.164 0 01-13.295-7.561c-9.3 12.661-17.792 26.123-25.206 40.089-8.858 16.691-19.296 36.388-26.41 57.636a131.917 131.917 0 014.661-1.614c14.748-5.36 29.275-7.166 43.339-5.32 1.341.118 2.694.263 4.061.441 33.737 4.38 61.34 32.914 100.818 87.875a647.701 647.701 0 0134.549 49.779c4.721 6.94 9.589 14.119 14.664 21.605 13.238 20.825 26.484 45.874 37.307 75.234a390.726 390.726 0 018.12 24.495c4.3 14.765 3.532 15.908 3.176 16.05-3.348 1.344-24.626-63.231-63.626-124.54-55.867-87.823-136.399-150.555-159.472-137.358-2.301 1.316-7.395 5.311-9.705 11.612-3.005 8.197.063 16.982 10.588 35.342 18.165 31.687 38.424 52.777 42.302 56.682 8.379 8.443 15.614 14.772 20.897 19.392 7.402 6.474 9.391 8.211 8.143 9.991-.202.29-.597.657-1.328.762-3.626.562-18.167-6.83-29.923-16.167-9.237-7.338-14.37-13.846-22.871-24.628-5.342-6.777-11.991-15.207-21.893-26.73-9.734-11.331-14.785-16.56-17.08-15.713-4.769 1.759-3.721 20.358-.798 34.372 4.01 19.225 12.293 33.625 18.49 42.582a124.999 124.999 0 019.802 17.133c9.72 20.622 18.061 53.095 8.659 58.931-9.353 5.806-32.92-15.621-37.549-19.977-5.908-5.564-10.143-10.764-14.238-15.79-6.476-7.95-12.592-15.457-24.354-22.849-4.289-2.695-12.272-7.71-14.529-5.875-4 3.251 10.147 30.617 14.795 39.608 8.893 17.203 17.043 31.276 23.592 42.585 15.724 27.155 24.386 42.113 19.001 57.945-1.634 4.802-6.079 13.714-11.381 13.717-.102 0-.202-.005-.303-.01-5.404-.348-7.845-9.506-10.934-21.1-.825-3.101-1.692-6.349-2.655-9.58-4.653-15.581-9.01-21.936-14.525-29.984-4.956-7.23-11.125-16.227-19.264-34.659-5.267-11.929-8.619-21.567-11.312-29.309-5.201-14.951-7.812-22.456-16.854-26.124-3.305-1.34-6.526-1.793-9.936-2.273-5.705-.802-11.604-1.632-18.797-6.529-8.099-5.511-12.223-12.496-14.438-16.248l-.409-.688c-9.439-15.824-36.5-47.704-71.352-55.092-7.649-1.622-27.785-4.585-48.313 5.287-14.422 6.936-21.898 16.971-36.85 37.042-5.124 6.878-17.021 23.739-26.933 48.293-4.04 10.008-6.06 15.012-7.739 22.599-4.489 20.281-10.072 74.225-10.879 76.605l.016.167a1.35 1.35 0 01-2.685.29l-.01-.102c-.002-.014-.011-.026-.012-.04-3.688-33.881-.121-65.956 10.599-95.339 5.801-15.898 11.932-26.677 40.995-72.084a7650.87 7650.87 0 0153.875-82.98c.032-.049.093-.06.131-.104 4.962-6.525 9.342-13.512 12.997-20.809 1.564-3.122 2.961-6.352 4.276-9.611-7.256 5.07-26.596 18.221-32.019 18.221-.572 0-.989-.148-1.22-.467-1.08-1.487.15-2.56 5.328-7.08 6.398-5.589 18.109-15.864 29.349-30.863.387-.572.795-1.127 1.175-1.705a147.874 147.874 0 004.61-7.515 147.913 147.913 0 0011.525-25.285c-7.03 5.529-14.781 9.956-23.059 13.327-.958.461-1.92.921-2.94 1.368-9.712 4.251-29.824 10.331-32.304 5.121-.052-.109-.044-.223-.081-.333-.005-.016-.023-.022-.028-.039-.011-.04-.004-.08-.011-.121-.721-2.717 3.16-5.756 11.247-12.004 11.44-8.834 30.514-23.579 47.156-46.866.109-.198.219-.396.327-.595 4.728-8.664 8.649-18.577 11.228-29.937l-12.029.5c-2.451-.267-5.165-.39-8.111-.502-11.61-.443-26.059-.994-38.459-11.729-3.192-2.763-5.532-5.572-7.795-8.29-5.729-6.882-10.253-12.317-25.34-12.317-9.087 0-19.058-7.51-29.355-21.892-.414 9.103-5.208 17.799-13.535 23.095-2.157 1.372-7.117-.089-3.769-2.219 9.797-6.231 13.59-18.247 10.28-28.879-3.621 6.956-11.996 11.511-20.454 11.417-2.849-.032 2.537-2.423 3.802-2.409 10.146.113 14.357-12.478 11.632-20.728-.322-.605-.644-1.18-.966-1.797-1.196-2.289-25.26-48.681-37.442-97.768 9.966 2.828 21.441 1.132 31.261-4.817 4.162-2.523 8.939-6.888 11.66-14.31 32.498 4.092 64.464 5.746 95.158 4.965a575.475 575.475 0 0043.954-2.829c2.468 2.141 5.503 3.626 8.876 4.301 5.988 1.205 12.575-.235 18.042-3.942a25.857 25.857 0 005.258-4.696c8.599-1.419 16.892-2.998 24.726-4.709l5.366 23.484c1.329 5.814 7.112 9.437 12.926 8.127l4.032-.918a10.796 10.796 0 006.677-4.675 10.734 10.734 0 008.164 1.403l4.029-.915a10.802 10.802 0 008.137-12.94l-5.208-22.788a21.078 21.078 0 004.09-4.129c9.64-3.249 18.956-6.748 27.742-10.421 44.748-18.701 84.675-44.861 118.881-77.867.09.042.179.082.272.121 3.752 1.624 7.945 1.632 11.781.055 4.237-1.732 7.716-5.305 9.545-9.804a18.616 18.616 0 001.363-6.292c.533-.156 1.057-.34 1.577-.554 4.23-1.73 7.708-5.295 9.559-9.822 1.482-3.668 1.759-7.623.841-11.238-.042-.29-.092-.577-.158-.865a344.487 344.487 0 005.659-7.275c20.997-27.793 39.78-49.056 57.932-65.484.382.316.781.62 1.2.904 3.452 2.349 7.671 3.177 11.874 2.323 3.304-.667 6.394-2.36 8.878-4.789 3.075 1.551 6.608 2.025 10.178 1.313 4.636-.947 8.857-3.908 11.565-8.106 2.138-3.293 3.198-7.046 3.093-10.732a10.74 10.74 0 001.993-3.489c1.208-3.502 1.706-7.634 1.155-11.718 1.06-.503 2.132-.965 3.199-1.446 12.696 39.757 6.625 75.327 1.364 94.144 11.321 4.851 43.647 21.512 53.761 56.959zm-214.957 99.708l52.137-.528a286.79 286.79 0 002.938-12.612 288.254 288.254 0 006.012-62.942c-7.919 6.646-15.254 13.829-21.835 21.384-10.376 11.912-18.546 24.203-26.448 36.088-4.374 6.58-8.548 12.844-12.804 18.61zm-41.468 259.561a358.235 358.235 0 01-46.162-36.881 357.68 357.68 0 01-22.115-22.838c-.035.741-.045 1.481-.093 2.222-.475 7.346-1.585 24.549-10.441 43.82-3.621 7.881-7.085 12.972-10.237 17.262-.516.725-1.027 1.435-1.525 2.127-3.686 5.108-6.913 9.612-9.278 16.594-.26.83-.517 1.674-.755 2.592-3.953 15.215-.893 28.396.414 34.024.587 2.526.744 3.204.293 3.897-.2.306-.575.559-.936.628-.353.071-.897.032-1.45-.504-1.53-1.477-7.754-13.746-8.975-30.351-.544-5.716-.377-11.283.566-16.664.127-.726.277-1.415.425-2.107 1.539-8.21 4.213-13.787 6.82-19.162 1.726-3.557 3.402-7.018 4.761-11.172 1.355-4.384 2.411-9.42 2.838-15.713.324-4.773.076-9.068-.509-12.871-.99-6.318-2.909-11.268-4.689-14.758-2.293-4.498-5.08-8.359-6.418-9.387-.145 1.25.206 4.092.45 6.07l.257 2.136c.011.099.017.194.028.293 1.376 9.021 1.035 17.518-.138 26.143-1.027 9.152-2.817 16.737-4.044 21.908-1.317 5.54-2.182 9.182-4.305 14.155-1.524 3.57-2.902 5.962-4.361 8.496-1.475 2.56-2.999 5.208-4.741 9.274-.02.047-2.079 4.889-3.945 11.473-.24.849-.481 1.797-.718 2.778-.254 1.07-.48 2.148-.702 3.226-1.632 8.153-2.782 19.843-1.486 35.489.103 1.245.125 1.503-.262 1.949a1.348 1.348 0 01-.989.464c-.357.108-.748-.142-1.01-.417-.041-.042-.097-.161-.158-.31a1.36 1.36 0 01-.208-.492c-.018-.086-.031-.17-.048-.256-.973-3.238-2.969-13.611-2.918-27.83-.018-4.116.133-8.197.496-12.224.117-1.296.231-2.593.388-3.879.141-1.156.301-2.26.465-3.353 1.259-9.095 3.102-15.265 5.043-21.734 2.226-7.418 4.743-15.842 6.802-30.277.019-.241.048-.462.066-.707.897-12.227-.25-24.649-3.411-36.937h-11.659a345.633 345.633 0 00-13.856 19.416 347.339 347.339 0 00-28.732 52.783c-8.255 19.278-15.368 41.077-33.094 71.743a396.583 396.583 0 01-14.477 23.171 284.855 284.855 0 0110.565 4.709c57.384 27.112 97.612 69.468 124.232 97.496 9.709 10.223 20.366 19.866 30.672 29.19 8.969 8.116 18.245 16.509 26.889 25.277l1.229 1.245c9.336 9.482 22.119 22.471 28.179 19.539.915-.443 3.92-2.737 4.191-13.68a59.419 59.419 0 00-.646-10.394c-2.204-14.383-9.368-26.088-16.342-37.478a508.35 508.35 0 01-3.854-6.365c-3.044-5.152-18.52-32.062-24.217-56.136a104.117 104.117 0 01-1.702-8.916c-3.068-20.761.221-41.267 6.348-60.533.01-.03.016-.059.028-.089 6.268-19.677 15.489-38.058 23.93-54.089 1.224-2.325 2.432-4.602 3.612-6.824 4.77-8.995 10.028-17.752 15.619-26.261zm193.214-193.832a62.023 62.023 0 01-.358-3.977 433.406 433.406 0 01-.565 19.357c-.534 10.439-1.117 15.014-4.787 18.276-2.811 2.5-6.957 3.747-11.277 3.747-4.397 0-8.972-1.292-12.5-3.874-6.816-4.984-6.649-12.341-6.202-31.998.157-6.901.352-15.489.284-26.043-.005-.769-.013-1.499-.02-2.242-3.174 1.074-7.199 2.01-11.814 2.01-1.963 0-4.024-.167-6.153-.564-7.193-1.342-12.497-4.793-15.348-6.646a50.69 50.69 0 01-6.572-5.088 1.352 1.352 0 01.571-2.303 90.786 90.786 0 008.438-2.643c1.158-.426 2.306-.905 3.454-1.382l-31.635.32c-4.322 6.875-9.862 13.101-16.52 18.543a1.352 1.352 0 01-2.099-1.569 286.961 286.961 0 006.729-17.654l-67.27.682a57.674 57.674 0 01-6.319 3.836 464.827 464.827 0 01-13.675 6.673c-4.824 8.792-4.473 19.509.803 28.111.67 1.093-4.856 3.222-5.868 1.572-5.044-8.222-5.463-17.965-1.795-26.528a463.851 463.851 0 01-5.63 2.491c-2.915 5.048-3.632 10.293-.545 16.194 1.371 2.62 2.766 4.869 3.029 7.938.596 6.956-3.699 12.925-7.809 18.069-1.475 1.846-7.075 1.434-4.819-1.388 3.651-4.569 7.597-10.263 6.596-16.475-.6-3.724-3.435-6.441-4.584-9.935-1.297-3.943-.755-7.73.71-11.256a717.092 717.092 0 01-5.747 2.348 288.284 288.284 0 00-3.482 1.424c-15.547 6.567-31.188 19.41-39.844 32.718-15.611 24.003-11.444 52.593-7.515 67.641a322.99 322.99 0 0025.762 35.4c1.319 1.575 31.824 37.624 64.72 58.694 7.812 5.004 25.29 15.268 31.608 18.693.578.313 4.38 2.383 9.592 5.252 1.563.861 3.376 1.868 5.577 3.106 3.046 1.714 21.151 11.927 21.082 12.053 2.707 1.064 5.483 2.081 8.336 2.972l.132.177c8.999 2.797 18.791 4.305 29.776 1.887 9.407-2.07 17.315-6.12 23.502-12.04 18.786-17.973 13.912-46.362 12.919-51.172-1.332-1.301-2.75-2.759-4.284-4.336-5.862-6.032-11.179-12.771-15.804-20.027l-.001-.002a1.309 1.309 0 01-.188-.661c-.001-.029-.023-.051-.023-.08 0-.032.025-.056.027-.088.018-.222.073-.437.195-.626.006-.009.006-.019.012-.028.1-.148.23-.279.39-.382.044-.028.095-.032.141-.055.025-.012.036-.04.062-.051a173.61 173.61 0 0015.666-7.526c11.539-6.277 22.407-13.936 32.336-22.745-.733-4.48-.5-9.055.758-13.293.767-2.584 1.721-5.796 4.309-8.715 2.688-3.03 5.46-3.85 9.655-5.089 2.744-.81 6.158-1.819 10.799-3.773 4.624-1.946 6.737-2.879 8.356-4.625 3.304-3.565 4.852-9.052 3.85-13.654-.87-3.997-3.444-5.949-7.006-8.646-1.781-1.35-3.801-2.882-5.92-4.907-13.268-12.678-15.473-30.306-16.198-36.098zm-54.028-36.003c.162-2.727 1.556-5.406 3.822-7.349.067-.057.148-.093.216-.149l-6.152.062a93.513 93.513 0 01-9.228 3.984 93.11 93.11 0 01-6.243 2.049 48.08 48.08 0 004.344 3.189c2.694 1.751 7.706 5.01 14.372 6.253.825.154 1.635.257 2.436.341-2.38-2.239-3.752-5.265-3.567-8.38zm10.588 8.315a35.632 35.632 0 007.982-1.901c-.031-2.297-.068-4.469-.107-6.513-.069-.03-.143-.041-.209-.083-1.891-1.235-4.148-1.599-6.207-1.009-1.59.459-2.874 1.462-3.437 2.686-.935 2.038-.098 4.871 1.978 6.82zm21.68 22.485c-.045 12.388-.105 29.356.399 34.203.087.839.303 2.086 1.18 3.249.858 1.134 2.196 1.94 3.97 2.392 3.381-.132 6.565-1.098 8.708-3.004 2.749-2.442 3.354-6.054 3.883-16.393.558-10.93.574-18.566.585-24.701.004-2.107.008-4.078.032-5.999.05-3.976.187-7.83.318-11.523.505-14.193.94-26.45-4.388-33.123a15.896 15.896 0 00-1.489-1.614c-1.51-1.413-3.333-2.507-5.271-3.336-1.291.449-2.465 1.069-3.441 1.923-1.739 1.52-2.951 3.756-3.599 6.644-1.632 7.262-1.188 25.003-.974 33.529.037 1.448.067 2.666.082 3.573.045 2.829.026 8.094.005 14.18zm31.233-158.958c-4.645-11.836-10.948-23.038-18.74-33.309-16.95 2.361-39.945 9.205-54.888 28.282-10.961 13.991-13.656 29.591-17.068 49.34-2.422 14.015-2.727 24.798-2.995 34.314-.203 7.163-.385 13.571-1.475 19.902l53.173-.538h.013c.061 0 .114.027.173.035a8.569 8.569 0 012.392-1.886c3.873-2.06 10.377-2.055 16.184.13a1.31 1.31 0 011.039.385c2.198.944 4.269 2.196 6.003 3.819a18.847 18.847 0 011.751 1.9c5.953 7.454 5.522 19.568 4.977 34.904-.131 3.672-.266 7.506-.316 11.461-.012.961-.019 1.936-.023 2.934.515-7.559 2.162-13.364 2.948-16.118a77.454 77.454 0 015.818-14.573 205.378 205.378 0 008.793-39.903c1.936-16.499 5.538-47.205-7.759-81.079zm-14.343 235.851a1.348 1.348 0 101.848 1.966c.724-.678 2.021-1.698 4.086-2.695a22.966 22.966 0 016.298-1.97 1.348 1.348 0 001.131-1.537 1.347 1.347 0 00-1.537-1.131 25.578 25.578 0 00-7.064 2.207c-2.373 1.146-3.9 2.351-4.762 3.16zm-27.882-17.598c-.602.805-4.526 6.109-2.377 12.082 1.695 4.712 6.056 6.985 7.851 7.744a1.346 1.346 0 001.768-.72c.276-.656-.544-1.568-.719-1.769-2.586-2.97-4.242-4.87-4.888-6.178-1.531-3.098.303-7.518 2.012-9.752.663-.867 2.12-2.373 5.034-5.387 1.229-1.271 1.559-1.583 1.467-1.733-.336-.545-6.446.767-10.148 5.713zm10.232-148.606c-5.023-1.09-15.25-2.295-27.354 1.903-10.491 3.638-19.149 10.286-20.274 13.088-.302.753-.16 1.313.013 1.649.8 1.564 2.463.964 5.773-.228 3.812-1.37 10.189-3.663 18.771-4.46h.001c7.292-.676 16.367-1.52 25.288 2.811 3.743 1.818 6.574 4.104 8.848 5.942 2.418 1.954 4.439 3.586 6.454 3.586.552 0 1.106-.124 1.668-.398 2.878-1.403 3.731-6.042 2.891-9.717-1.494-6.548-8.924-11.316-22.079-14.176zm13.45-225.576c4.307 3.713 3.685 10.039 2.595 13.195l-2.599-.712c.012-.055 1.096-5.589-1.884-8.294-.861-.781-2.088-.968-3.769-.974-.819.485-1.638.981-2.455 1.483l8.052 14.181-.154.092c.533 1.877.138 4.139-1.127 6.089-1.158 1.793-2.86 3.034-4.667 3.402-1.332.265-2.626.03-3.657-.671-2.527-1.715-2.862-5.597-.763-8.835 1.055-1.628 2.568-2.778 4.15-3.249l-5.092-8.969c-1.47.937-2.94 1.901-4.41 2.893.508 3.593-.608 6.888-.659 7.038l-2.599-.711c.005-.025.39-1.983.078-4.144a220.648 220.648 0 00-4.346 3.123l4.211 7.416-.154.092c.533 1.877.138 4.139-1.127 6.089-1.158 1.794-2.86 3.034-4.669 3.402-1.321.265-2.624.032-3.656-.671-2.526-1.717-2.862-5.598-.763-8.835 1.055-1.63 2.568-2.779 4.15-3.249l-1.094-1.928c-24.047 18.37-48.276 44.161-76.117 81.011-3.027 4.007-6.311 8.145-10.286 12.956l2.705 3.195-.14.127c.749 1.581.763 3.635-.018 5.566-.744 1.821-2.067 3.231-3.632 3.871-1.144.472-2.355.477-3.404.028-1.61-.699-2.591-2.307-2.77-4.216a347.071 347.071 0 01-6.195 6.94l3.673 4.342-.14.125c.746 1.581.761 3.631-.021 5.559-.741 1.821-2.063 3.231-3.63 3.872-1.147.472-2.356.48-3.406.026-2.566-1.114-3.532-4.547-2.206-7.817l.024-.057c-35.347 36.775-77.513 65.549-125.42 85.569-9.754 4.077-20.142 7.92-30.884 11.431-.562 1.586-1.609 3.067-3.005 4.232-1.925 1.612-4.249 2.385-6.371 2.241l7.271 31.806-4.03.916-7.961-34.84c-1.876.541-3.76 1.067-5.65 1.585a10.043 10.043 0 01-2.136 2.48c-1.925 1.614-4.251 2.401-6.372 2.24l7.273 31.807-4.03.916-7.78-34.047a444.4 444.4 0 01-9.134 2.135c-9.403 2.086-19.506 3.976-30.042 5.622-1.047 2.204-2.784 4.194-4.96 5.66-3.101 2.106-6.707 2.952-9.865 2.313-2.305-.461-4.14-1.653-5.311-3.446a6.784 6.784 0 01-.787-1.668c-16.082 1.847-32.613 3.001-49.154 3.432-33.269.862-68.079-1.224-103.502-6.211-.315 8.082-3.213 13.836-8.629 17.115-7.858 4.764-16.991 5.95-24.427 3.172-4.796-1.789-8.282-5.098-9.564-9.079-2.506-7.787-.286-14.164 3.478-17.874-12.484-2.504-24.631-5.295-36.181-8.314 4.576 22.084 7.486 36.708 8.037 39.486.208 1.052-.419 2.015-1.383 2.226-.129.029-.26.044-.388.044a1.846 1.846 0 01-1.78-1.4c-.04-.16-4.057-16.476-10.046-41.838-22.18-6.037-41.825-12.824-53.989-18.658a1.83 1.83 0 01-.998-2.062c.185-.841 1.013-1.424 1.812-1.432l1.549.033.457.171c11.207 5.375 29.363 11.629 50.064 17.258a6656.06 6656.06 0 01-7.995-34.395c-21.29-6.654-40.831-14.203-52.385-20.242a1.846 1.846 0 01-.943-2.038 1.815 1.815 0 011.767-1.428l1.336-.009.518.208c10.849 5.671 28.474 12.454 48.611 18.724a6008.167 6008.167 0 01-8.057-35.719c-20.158-7.17-38.666-15.122-49.619-21.326a1.846 1.846 0 01-.835-2.2 1.805 1.805 0 012.045-1.208l1.608.398c10.206 5.78 26.787 12.873 45.747 19.585a5985.801 5985.801 0 01-7.237-33.159c-19.241-7.622-36.219-15.633-46.658-22.021a1.839 1.839 0 01-.837-1.963 1.819 1.819 0 011.594-1.431l1.147-.113c.393-.047.791.05 1.129.26 9.501 5.81 24.901 13.095 42.521 20.123a6438.998 6438.998 0 01-8.464-40.102c-17.762-8.054-33.47-16.375-43.171-22.872a1.846 1.846 0 01-.663-2.27 1.832 1.832 0 012.168-1.024l2.05.664c8.649 5.793 22.606 13.199 38.575 20.481-4.48-21.654-7.254-35.629-7.543-37.082-.215-1.11.396-2.05 1.366-2.269a1.823 1.823 0 012.175 1.355c.038.154 3.859 15.655 9.75 40.574 21.77 9.603 46.383 18.677 71.321 26.294 2.814-13.654 9.315-25.125 19.339-34.118l1.082-.97.887 1.15c5.503 7.125 13.762 25.357 15.242 44.009 18.125 4.454 36.471 8.14 54.574 10.964l-1.743-13.697 5.497-.69 1.941 15.262a588.355 588.355 0 0015.353 2.07c86.599 10.387 211.583 4.845 315.897-80.286l-4.264-7.512 2.023-1.187.634 1.082.002-.001.005-.003-.637-1.08 1.184-.699.999 1.524c.609.589 2.187 1.843 5.627 3.225a376.983 376.983 0 0020.984-19.241c57.219-56.62 99.891-83.179 149.074-92.189-.831-.204-1.577-.594-2.082-1.241-1.461-1.859-.839-4.752 1.421-6.582.966-.781 2.098-1.229 3.191-1.316l-3.74-17.547 3.415-.742 4.764 22.358-.193.057c-.12 1.4-.901 2.816-2.174 3.846a6.402 6.402 0 01-.702.484 208.72 208.72 0 014.477-.687c.257-.306.541-.584.848-.833.966-.782 2.1-1.23 3.193-1.317l-3.74-17.548 3.415-.742 4.149 19.48c12.097-1.273 24.543-1.571 37.028-1.328l.573 5.018c-12.799-.263-25.547.049-37.899 1.406a6.153 6.153 0 01-1.454 1.686c-1.225.995-2.719 1.482-4.104 1.321-1.055-.12-1.971-.616-2.579-1.395a3.427 3.427 0 01-.335-.516c-51.043 7.668-94.082 33.533-153.072 91.903-5.9 5.839-12.269 11.716-18.958 17.493 2.724.903 4.7 2.501 5.878 4.756 1.507 2.879 1.326 6.162.957 8.282a376.562 376.562 0 0012.252-12.565c11.51-12.377 22.197-23.135 32.638-32.849l-1.098-1.461 16.992-13.267.283.376c51.15-43.098 92.68-55.959 151.421-57.09l.57 4.997c-57.858 1.091-98.701 13.724-148.975 56.095l5.479 7.27c27.004-23.095 52.74-37.836 80.777-46.265l-.769-2.829 18.362-5.052.886 3.249c14.511-2.931 29.741-4.423 45.076-5.139l.569 4.985c-15.092.698-30.068 2.157-44.319 5.023l2.877 10.538-.207.069a4.54 4.54 0 01-.018.26c13.851-3.015 28.298-4.798 42.807-5.906l.567 4.968c-21.001 1.593-39.978 4.495-57.987 9.912a6.01 6.01 0 01-1.429 1.964c-1.161 1.06-2.601 1.616-3.994 1.545-.923-.051-1.756-.397-2.384-.98-12.899 4.487-25.22 10.409-37.317 17.857l.931 1.673c.852.825 3.275 2.665 9.221 4.472 28.302-16.16 57.634-23.512 93.986-27.442l.567 4.967c-34.345 3.714-62.209 10.516-88.953 25.119zm26.195-45.369l2.993 10.981c1.842-.541 3.66-1.049 5.437-1.52-.331-1.614.335-3.508 1.87-4.905.904-.824 1.991-1.334 3.06-1.486l-1.636-6.003a205.071 205.071 0 00-11.724 2.933zm-88.225 56.362c-1.118-.56-1.867-1.641-2.162-2.945a376.593 376.593 0 00-5.442 5.017l2.723 3.99c.518 1.442.403 3.22-.368 4.853-.765 1.608-2.036 2.816-3.49 3.316-1.077.369-2.194.315-3.137-.16-1.934-.973-2.746-3.387-2.125-5.859-10.798 10.578-21.973 22.537-34 36.382-16.962 19.525-35.864 37.259-56.201 52.73 4.812 6.338 1.775 15.365 1.635 15.77l-2.599-.713c.016-.08 1.572-7.98-2.753-11.908a2.565 2.565 0 00-.235-.19 361.734 361.734 0 01-7.092 5.113l8.663 15.258c21.269-16.744 40.828-36.054 58.159-57.422 27.178-33.515 50.683-57.348 73.871-74.894l-1.485-2.617 2.024-1.184.003-.001 1.184-.699.998 1.523c.125.12.322.295.603.516 17.569-12.846 35.364-22.241 54.356-28.698.33-.651.744-1.2 1.253-1.667.906-.827 1.993-1.338 3.065-1.489l-2.566-9.396c-27.413 8.277-52.604 22.739-79.084 45.398l1.144 1.829c.579 1.469.483 3.309-.315 4.997-.765 1.607-2.037 2.814-3.491 3.313-1.079.367-2.192.31-3.136-.163zm-114.983 99.034l-.315.007c-1.184.024-2.388.049-3.576-.037l1.127 1.986c.923-.648 1.845-1.298 2.764-1.956zm99.113-107.931l5.24 6.953a392.345 392.345 0 0110.682-9.671l-4.608-6.116-11.314 8.834zm-54.091 53.326c-.029 1.446-.483 2.906-1.304 4.173-1.707 2.647-4.534 3.961-6.924 3.333a368.685 368.685 0 01-46.687 34.969c2.109 1.488 6.029 3.569 13.067 5.533a16.6 16.6 0 013.726 1.521c20.346-15.324 39.303-33.041 56.353-52.67 13.671-15.737 26.265-29.075 38.467-40.741l-5.609-7.44c-10.239 9.539-20.732 20.107-32.042 32.266a385.776 385.776 0 01-19.047 19.056zm-76.346 74.607l-.154.069.014.087a362.56 362.56 0 0025.176-15.758l-7.882-13.884c-7.553 4.621-15.567 9.109-23.852 13.364l6.698 16.122zm-11.47-1.184c1.473-1.751 3.433-2.843 5.35-3.077l-4.169-10.037c-18.662 9.331-38.331 17.188-58.504 23.372l4.649 19.9c17.708-6.095 34.878-13.427 51.081-21.808-1.177-2.388-.617-5.733 1.593-8.35zm78.91-91.077l7.109 12.52c1.028-.97 2.052-1.947 3.069-2.93l-1.238-.341c.012-.055 1.096-5.589-1.884-8.293-1.159-1.053-2.989-1.014-5.106-.966-.642.015-1.298.03-1.95.01zm-336.422 80.873l3.942 30.99c7.122.787 13.18 1.367 18.983 1.818 5.58.434 11.242.787 16.852 1.052l-.165-28.084 5.398.021.166 28.288c42.327 1.581 83.015-1.821 120.976-10.126l-.688-2.947.153-.037c-.083-2.53 1.218-5.239 3.541-7.208 2.044-1.722 4.528-2.584 6.826-2.369 1.67.157 3.127.901 4.1 2.095 1.511 1.864 1.639 4.531.543 7.026a414.09 414.09 0 0014.345-3.959l-1.986-8.507.157-.034c-.07-2.52 1.229-5.214 3.541-7.172 2.041-1.722 4.539-2.584 6.823-2.372 1.672.157 3.127.902 4.099 2.096 2.394 2.953 1.391 7.698-2.284 10.805-2.021 1.713-4.491 2.543-6.707 2.355l.377 1.612c20.052-6.165 39.458-13.899 57.726-23.007l-5.342-12.863 3.698-1.565 5.237 12.609a360.347 360.347 0 0073.413-49.94c-.388-1.818.044-3.93 1.21-5.731 1.055-1.628 2.568-2.778 4.152-3.247l-5.996-10.562c-41.697 33.933-89.698 57.995-142.702 71.533a403.763 403.763 0 01-12.434 2.968c-50.491 11.203-105.607 13.339-163.818 6.357a539.346 539.346 0 01-14.136-1.895zm-46.113 90.575c28.472 4.067 56.703 6.252 83.934 6.493 24.255.22 48.33-1.173 71.606-4.129l-3.33-26.187c-19.678 1.921-39.964 2.719-60.715 2.388l.047 8.169-.132-.003c-.535 4.4-3.871 8.774-8.679 11.209-3.995 2.025-8.388 2.487-12.051 1.268-2.647-.881-4.638-2.545-5.758-4.81-2.703-5.486.717-12.799 7.63-16.416a581.848 581.848 0 01-26.611-1.943c-.216.17-.435.338-.668.496-3.895 2.642-8.405 3.709-12.371 2.908-2.853-.572-5.125-2.045-6.57-4.257a9.13 9.13 0 01-.765-1.433 655.629 655.629 0 01-33.515-5.207c7.37 7.524 12.006 19.711 7.948 31.454zm53.018-36.295l-.133.007c.013 2.597-.861 5.29-2.508 7.748 8.786.759 17.41 1.325 25.669 1.682 3.293.142 6.637.254 10.02.339l-.146-25.187a582.157 582.157 0 01-17.24-1.077c-5.45-.423-11.201-.972-17.977-1.717l2.315 18.205zm165.344-4.198l-1.376-5.883.008.001-3.539-15.153c-38.12 8.303-79.191 11.692-122.136 10.044l.146 25.079c44.632.697 87.324-4.043 126.897-14.088zm2.883-6.109l24.878-5.821-3.845-16.48a415.2 415.2 0 01-24.731 6.445l3.698 15.856zm-176.206-8.539c-23.792-2.825-48.127-7.16-72.36-12.89l-2.487 2.556a2203.343 2203.343 0 00-6.727 6.934 1629.016 1629.016 0 015.796 17.79c2.852.612 5.725 1.212 8.64 1.796.986.125 1.939.311 2.823.552a671.89 671.89 0 0044.117 7.134c.398-4.357 3.241-8.841 7.57-11.772 4.464-3.006 9.718-3.868 13.855-2.448l-1.227-9.652zm-97.388 14.068c-9.646 11.779-13.993 20.827-13.592 28.317a676.244 676.244 0 0017.629 4.074c-1.474-4.906-1.185-9.174-.617-12.041 1.036-5.218 5.726-11.149 11.569-14.743l-.721-2.177a686.867 686.867 0 01-14.268-3.43zm12.568-1.666c-.92-2.744-1.723-5.126-2.369-7.038l-.705-2.094a274.571 274.571 0 00-6.238 6.934c3.062.746 6.163 1.479 9.312 2.198zm.717 35.996c3.779.766 7.613 1.514 11.511 2.236a936.557 936.557 0 00-4.977-16.109 9.874 9.874 0 00-1.995 1.291l-.003.001c-3.099 2.589-4.83 7.45-4.536 12.581zm-25.94-1.185c6.037 16.979 16.935 25.621 29.935 23.736 3.783-.556 8.242-2.121 12.112-4.233a531.741 531.741 0 00-3.121-11.074 692.824 692.824 0 01-12.095-2.367c.998 3.208 2.773 6.144 5.201 8.584l-1.731 2.058c-5.122-3.585-8.976-7.73-11.462-12.329a653.584 653.584 0 01-18.59-4.313l-.249-.062zm45.834 4.903c2.688.461 5.4.91 8.139 1.347.538-2.04.633-4.146.282-6.281-1.437-8.707-7.966-13.107-14.06-13.845 2.202 7.174 4.08 13.475 5.639 18.779zm-4.583-69.065c22.767 5.195 45.669 9.182 68.146 11.862l-3.972-31.222c-18.181-2.828-36.674-6.568-55.008-11.125.143 12.238-2.935 22.476-9.166 30.485zm-18.686-42.853a689.877 689.877 0 0018.607 5.106c1.256-9.184-.887-18.55-6.532-28.53-5.673 7.395-9.637 15.085-12.075 23.424zm.017 38.331l.589.149c6.946-8.148 14.229-17.846 17.079-28.737a681.516 681.516 0 01-18.829-5.276c-2.371 10.842-1.982 22.224 1.161 33.864zm-69.747-22.115c18.997 7.278 40.211 14.148 61.534 19.931-2.485-12.414-2.997-23.932-1.523-34.287-23.976-7.449-47.861-16.322-69.323-25.75a6448.883 6448.883 0 019.312 40.106zm8.582 38.084c11.783 3.992 24.308 7.791 37.256 11.295 4.041-4.641 8.174-9.113 12.178-13.445 1.966-2.127 3.908-4.228 5.804-6.311-.394-1.456-.784-2.98-1.162-4.56-21.439-5.829-42.106-12.52-61.483-19.904a5651.339 5651.339 0 017.243 32.194l.164.731zm8.735 40.063a603.732 603.732 0 0015.493 4.381c-.563-7.717.546-18.096 7.893-27.11a123.67 123.67 0 011.961-2.33 627.267 627.267 0 01-33.026-10.239 6168.104 6168.104 0 017.679 35.298zm60.397 49.894a680.11 680.11 0 0016.047 2.589c-.465-3.104-1.224-6.882-2.26-11.275-23.092 10.457-44.68-3.578-51.271-13.708-3.21-4.944-5.754-11.784-6.881-18.454a633.656 633.656 0 01-15.01-4.276 6679.834 6679.834 0 017.15 33.91c13.692 3.568 28.254 6.8 43.305 9.613 2.867-.565 6.092.011 8.92 1.601zm16.56 7.344a661.257 661.257 0 01-10.989-1.773c.423.784.774 1.614 1.051 2.484 1.144 3.605.349 8.197-2.024 11.698-1.11 1.639-2.487 2.91-4.038 3.76 1.647.137 3.694-.088 5.821-.82 2.633-.903 8.888-3.907 10.118-12.275.108-.759.129-1.792.061-3.074zm4.907-33.851a630.014 630.014 0 01-4.711-.798c.512 1.761.976 3.366 1.388 4.798 1.331-1.268 2.442-2.607 3.323-4zm171.47 22.68l-2.297-18.051c-23.318 2.911-47.643 4.259-72.274 4.056-27.741-.248-56.652-2.591-85.941-6.963-2.538 4.551-6.4 8.612-11.494 12.082 1.189 4.423 2.643 10.515 3.057 16.411 35.178 4.804 69.967 6.799 103.427 5.929a544.279 544.279 0 0049.128-3.502c.746-3.005 2.849-5.891 5.784-7.878 3.399-2.289 7.374-3.017 10.61-2.084zm1.928-23.765c68.83-9.439 129.557-32.619 180.554-68.925-1.512-2.584-1.243-6.343.831-9.544 1.529-2.36 3.78-3.953 6.067-4.423l-5.229-9.209a367.67 367.67 0 01-30.461 18.767c-1.209 1.176-2.661 1.979-4.127 2.286-17.701 9.452-36.5 17.609-55.9 24.258l.349 1.502-20.645 4.831a426.452 426.452 0 01-24.429 6.212c-16.23 3.601-33.035 6.336-50.323 8.199l3.313 26.046zm230.931-85.328l-9.179-10.844a369.816 369.816 0 01-27.685 23.603 11.332 11.332 0 01-1.014 1.958c-1.906 2.952-4.886 4.699-7.731 4.574-26.672 19.318-56.2 35.151-87.77 47.067-18.371 6.932-37.815 12.694-57.792 17.129-12.507 2.774-25.661 5.098-39.117 6.911l3.251 25.555c12.694-2.065 25.228-4.613 37.301-7.585.245-2.16 1.481-4.364 3.391-5.962 1.963-1.645 4.347-2.464 6.562-2.249 1.614.157 3.018.882 3.954 2.041a5.448 5.448 0 011.063 2.202c1.361-.389 2.723-.788 4.084-1.191.454-1.855 1.591-3.636 3.213-4.993 1.966-1.644 4.352-2.462 6.564-2.248 1.612.157 3.017.882 3.951 2.041.19.236.359.489.504.762 61.541-20.415 114.165-53.636 156.45-98.771zm13.59-15.349l-5.108-6.038-12.451 10.94 6.512 7.693a376.97 376.97 0 0011.047-12.595zm89.585-97.423l-5.163-9.097c-22.731 17.264-45.82 40.715-72.538 73.658-5.458 6.731-11.394 13.527-17.683 20.251l8.219 9.709c3.672-4.459 6.749-8.344 9.613-12.134 28.33-37.499 53.004-63.716 77.552-82.387zm7.559-5.498c-1.168-.716-2.873-.676-4.666-.633a38.3 38.3 0 01-1.949.013l2.162 3.808a218.458 218.458 0 014.453-3.188zm7.491-4.997l-5.164-9.096a221.876 221.876 0 00-9.327 6.284 45.415 45.415 0 004.96 1.672c2.469.688 4.379 1.912 5.694 3.643a214.177 214.177 0 013.837-2.503z"/></svg>